<svg viewBox="0 0 204 68" fill="white" xmlns="http://www.w3.org/2000/svg">
<path fill-rule="evenodd" clip-rule="evenodd" d="M68 33.9957C68 52.7466 83.2524 68 102 68C120.746 68 136 52.7466 136 33.9957C136 24.9298 132.459 16.3962 126.03 9.96976C119.601 3.53958 111.067 0 102 0C83.2524 0 68 15.248 68 33.9957ZM95.1963 1.54882C80.1826 4.70446 68.8771 18.049 68.8771 33.9862C68.8771 37.4137 69.3999 40.7212 70.3698 43.8333C70.9753 45.7762 71.7552 47.643 72.6909 49.4152C74.4915 48.039 76.4635 47.0225 78.5412 46.3963C80.1571 45.9093 81.8369 45.6586 83.5496 45.6586C83.6831 45.6586 83.817 45.6601 83.951 45.6631C84.4201 45.6738 84.8914 45.7032 85.3644 45.7517C85.8373 45.8002 86.3118 45.8678 86.7871 45.9549C88.477 46.2642 90.0689 46.8514 91.6568 47.437C92.949 47.9136 94.2386 48.3893 95.5761 48.7134C97.4774 49.1741 99.4885 49.4163 101.486 49.4378C100.658 49.1087 100.009 48.6283 99.5492 48.0005C98.9117 47.1303 98.8133 46.2031 98.8133 45.7283L98.8957 44.3833C98.8957 43.2386 98.6953 42.2073 98.6124 41.7808C98.5943 41.6876 98.5818 41.6232 98.5783 41.5929C97.5571 40.7642 97.0392 39.9325 97.0392 39.0648V39.0623C97.0508 38.7158 97.1894 38.3986 97.3836 38.0826C96.051 37.711 95.2509 37.2051 95.0024 36.5273L94.9187 36.0507C94.9187 35.7134 95.0415 35.431 95.1385 35.3032C95.8525 34.1501 96.004 33.3208 96.004 32.8283C96.004 32.8283 95.905 32.3417 95.905 32.1878C95.905 32.1586 95.9105 32.1408 95.9208 32.1408C93.5488 31.3818 92.1288 30.3405 91.6891 29.0419L91.545 28.1814C91.545 27.3869 91.9034 26.8149 91.9731 26.7074L96.2593 20.6995C97.3525 19.2646 97.5803 18.0093 97.5803 17.2081C97.5803 17.2081 97.4519 16.261 97.4519 16.2456C95.7627 12.3804 94.907 8.61159 94.907 5.03898C94.907 3.87969 95.0066 2.70939 95.1963 1.54882ZM128.568 53.2101C126.516 51.4348 126.014 47.5563 125.922 44.95C125.873 44.2239 125.857 43.5484 125.857 42.9677L125.9 41.5289C125.198 32.5587 120.916 33.1722 120.916 33.1722C119.098 33.5788 117.036 33.006 117.036 33.006C108.491 30.2028 102.545 21.9108 102.545 21.9108C99.1168 17.2532 97.318 13.1783 96.4593 9.78632C96.8529 11.7755 97.4892 13.8037 98.384 15.8561C98.4054 15.91 98.5861 16.4222 98.5861 17.2146C98.5861 18.1741 98.3236 19.6579 97.0661 21.3049L92.8019 27.2884L92.8004 27.2908C92.8004 27.2908 92.7989 27.2926 92.7982 27.2945C92.7677 27.3415 92.5588 27.6807 92.5546 28.1579C92.5546 28.1666 92.5558 28.1764 92.5571 28.1848L92.6463 28.7056C92.6475 28.7146 92.6493 28.7226 92.6522 28.7306C93.0004 29.7192 94.2896 30.5846 96.3821 31.2258C96.3821 31.2258 96.56 31.3061 96.644 31.4127C96.728 31.5194 97.0007 31.9015 97.0007 32.8183C97.0007 33.7411 96.6629 34.7556 95.988 35.8482C95.9827 35.8586 95.9776 35.8697 95.9741 35.8812L95.9362 36.0187C95.9312 36.0363 95.93 36.056 95.9331 36.0749L95.9405 36.1177C95.9431 36.1332 95.9456 36.148 95.9472 36.1586L95.9482 36.163C95.9502 36.1725 95.9521 36.1814 95.9563 36.1898C96.0382 36.3695 96.434 36.9054 98.3547 37.2984L99.2073 37.4744C99.3197 37.4982 99.3509 37.6443 99.2568 37.7104L98.5397 38.2151C98.489 38.2506 98.0591 38.5855 98.0494 39.1151C98.0494 39.6438 98.4854 40.2629 99.305 40.9039C99.308 40.9071 99.3111 40.9095 99.3142 40.912L99.429 41.022C99.4462 41.039 99.4589 41.0604 99.4657 41.0842L99.4889 41.1748C99.5315 41.33 99.9066 42.7507 99.9076 44.3642L99.9076 44.3685L99.9075 44.3714L99.9072 44.3745L99.837 45.4947L99.8277 45.7165C99.8277 46.0728 99.8975 46.7621 100.366 47.399C100.931 48.1586 102.097 48.6953 103.211 48.8521C104.325 49.0089 108.311 47.6868 110.207 47.24C110.472 47.1777 115.296 46.1357 117.301 50.6775C117.301 50.6775 121.212 58.6752 121.804 59.8809C121.841 59.9561 121.937 59.9781 122.003 59.9266C124.508 57.9708 126.717 55.7145 128.568 53.2101ZM126.31 18.0706C123.322 18.6798 124.388 21.3002 124.388 21.3002C125.367 23.8309 123.993 26.2723 123.993 26.2723C126.98 24.8367 128.048 21.483 128.048 21.483C128.963 17.8872 126.31 18.0706 126.31 18.0706ZM119.816 21.1792C119.137 22.0842 118.862 23.2545 119.477 24.2702C119.857 24.8991 120.48 25.3544 121.156 25.6422C120.825 25.1258 120.759 24.4487 120.984 23.8779C121.074 23.6519 121.203 23.4459 121.333 23.2398C121.458 23.043 121.582 22.8462 121.671 22.6318C122.14 21.5037 120.812 20.4819 119.816 21.1792ZM118.503 25.2206C117.912 25.1521 117.019 25.4198 117.196 26.1805C117.662 27.1835 118.423 27.4523 119.106 27.4523C119.896 27.4523 120.579 27.0943 120.579 27.0943C119.937 27.0508 118.884 26.9238 118.986 26.0559L118.99 26.0184C119.017 25.7967 119.046 25.5503 118.899 25.3868C118.802 25.2774 118.649 25.237 118.503 25.2206ZM126.828 26.5155C126.036 28.0672 123.96 28.4662 123.96 28.4662C125.138 29.1036 126.183 29.2723 126.963 29.2723C128.131 29.2723 129.21 28.7912 129.759 27.7023C130.004 27.2176 130.059 26.2815 129.508 25.9356C127.562 24.7152 126.828 26.5155 126.828 26.5155ZM117.103 27.3368C113.966 26.7264 114.878 29.1671 114.878 29.1671C115.874 30.4952 117.258 30.8807 118.527 30.8807C120.287 30.8807 121.83 30.1406 121.83 30.1406C120.411 30.1572 118.414 29.8583 117.901 28.3219C117.785 27.9737 117.516 27.4169 117.103 27.3368ZM126.72 31.1947C125.584 31.6403 124.277 31.0898 123.414 30.3239C123.414 30.3239 124.517 34.2022 127.877 34.2022C127.914 34.2022 127.951 34.1997 127.988 34.1997C127.988 34.1997 129.785 34.0151 129.752 32.1243C129.504 31.2277 128.645 30.6546 127.717 30.8325C127.464 30.8812 127.227 30.9823 126.989 31.0832C126.9 31.1213 126.81 31.1594 126.72 31.1947Z" fill="white"/>
</svg>
