<svg width="324" height="324" viewBox="0 0 324 324" fill="none" xmlns="http://www.w3.org/2000/svg">
<path d="M294.519 196.807C303.386 202.371 308.739 208.439 310.272 214.664C311.804 220.889 309.487 227.149 303.452 233.088C297.416 239.027 287.781 244.527 275.097 249.276C262.412 254.024 246.927 257.927 229.524 260.762C212.122 263.597 193.143 265.308 173.672 265.798C154.2 266.288 134.618 265.547 116.042 263.618C97.4663 261.688 80.2612 258.608 65.4091 254.553C50.557 250.497 38.3487 245.547 29.4813 239.983C20.6138 234.419 15.2609 228.352 13.7282 222.127C12.1955 215.902 14.5129 209.641 20.5482 203.702C26.5835 197.764 36.2184 192.263 48.9029 187.515C61.5874 182.767 77.073 178.864 94.4756 176.029C111.878 173.194 130.857 171.482 150.328 170.992C169.8 170.502 189.382 171.243 207.958 173.173C226.534 175.102 243.739 178.183 258.591 182.238C273.443 186.293 285.651 191.244 294.519 196.807L294.519 196.807Z" stroke="white" stroke-width="0.457627"/>
<path d="M161.725 189.644C141.44 189.644 121.611 188.347 104.744 185.917C87.8778 183.487 74.732 180.033 66.9693 175.992C59.2065 171.95 57.1754 167.504 61.1328 163.214C65.0903 158.923 74.8584 154.983 89.2022 151.89C103.546 148.797 121.821 146.69 141.716 145.837C161.611 144.984 182.234 145.422 200.974 147.096C219.715 148.77 235.734 151.604 247.003 155.241C258.273 158.878 264.288 163.154 264.288 167.528" stroke="white" stroke-width="0.457627"/>
<path fill-rule="evenodd" clip-rule="evenodd" d="M310.733 142.098H264.289V167.531H310.733V142.098ZM105.085 211.461C123.13 213.85 142.47 215.08 162.002 215.08V167.531L59.1623 167.531V142.098H13.2715V167.531V167.531C13.2716 173.775 17.1186 179.958 24.5929 185.727C32.0673 191.496 43.0227 196.738 56.8336 201.153C70.6445 205.569 87.0404 209.071 105.085 211.461Z" fill="#222222"/>
<path d="M264.289 142.098V141.869H264.06V142.098H264.289ZM310.733 142.098H310.961V141.869H310.733V142.098ZM264.289 167.531H264.06V167.76H264.289V167.531ZM310.733 167.531V167.76H310.961V167.531H310.733ZM162.002 215.08V215.309H162.231V215.08H162.002ZM105.085 211.461L105.055 211.688L105.085 211.461ZM162.002 167.531H162.231V167.302H162.002V167.531ZM59.1623 167.531H58.9335V167.76H59.1623V167.531ZM59.1623 142.098H59.3911V141.869H59.1623V142.098ZM13.2715 142.098V141.869H13.0427V142.098H13.2715ZM13.2715 167.531H13.0427V167.531L13.2715 167.531ZM24.5929 185.727L24.4531 185.908L24.5929 185.727ZM264.289 142.326H310.733V141.869H264.289V142.326ZM264.518 167.531V142.098H264.06V167.531H264.518ZM310.733 167.302H264.289V167.76H310.733V167.302ZM310.504 142.098V167.531H310.961V142.098H310.504ZM162.002 214.852C142.48 214.852 123.149 213.622 105.115 211.234L105.055 211.688C123.111 214.079 142.461 215.309 162.002 215.309V214.852ZM161.773 167.531V215.08H162.231V167.531H161.773ZM59.1623 167.76L162.002 167.76V167.302L59.1623 167.302V167.76ZM58.9335 142.098V167.531H59.3911V142.098H58.9335ZM13.2715 142.326H59.1623V141.869H13.2715V142.326ZM13.5003 167.531V142.098H13.0427V167.531H13.5003ZM13.5003 167.531V167.531H13.0427V167.531H13.5003ZM24.7327 185.546C17.285 179.798 13.5004 173.674 13.5003 167.531L13.0427 167.531C13.0428 173.877 16.9522 180.119 24.4531 185.908L24.7327 185.546ZM56.9033 200.936C43.1056 196.524 32.1779 191.293 24.7327 185.546L24.4531 185.908C31.9567 191.7 42.9398 196.952 56.7639 201.371L56.9033 200.936ZM105.115 211.234C87.0807 208.846 70.6985 205.346 56.9033 200.936L56.7639 201.371C70.5905 205.792 87.0001 209.297 105.055 211.688L105.115 211.234Z" fill="white"/>
<path fill-rule="evenodd" clip-rule="evenodd" d="M79.3717 181.632C103.83 186.857 132.586 189.646 162.002 189.646V164.212C161.91 164.212 161.817 164.212 161.725 164.212C105.081 164.212 59.1621 154.31 59.1621 142.096C59.1621 129.882 105.081 119.98 161.725 119.98C218.369 119.98 264.288 129.882 264.288 142.096C264.288 142.096 264.288 142.096 264.288 142.096L310.732 142.096C310.732 132.692 302.009 123.499 285.667 115.679C269.324 107.86 246.096 101.765 218.919 98.1664C191.742 94.5675 161.837 93.6258 132.986 95.4605C104.135 97.2953 77.634 101.824 56.8337 108.474C36.0334 115.124 21.8682 123.596 16.1294 132.82C10.3906 142.044 13.3359 151.604 24.593 160.293C35.85 168.981 54.9132 176.408 79.3717 181.632Z" fill="#181818"/>
<path d="M162.002 189.646V189.875H162.231V189.646H162.002ZM79.3717 181.632L79.324 181.856L79.3717 181.632ZM162.002 164.212H162.231V163.983L162.002 163.983L162.002 164.212ZM264.288 142.096H264.06V142.325H264.288V142.096ZM310.732 142.096V142.325H310.961V142.096H310.732ZM285.667 115.679L285.568 115.886L285.667 115.679ZM218.919 98.1664L218.889 98.3932L218.919 98.1664ZM132.986 95.4605L133.001 95.6889L132.986 95.4605ZM56.8337 108.474L56.9034 108.692L56.8337 108.474ZM16.1294 132.82L15.9351 132.699L16.1294 132.82ZM24.593 160.293L24.7328 160.112L24.593 160.293ZM162.002 189.417C132.599 189.417 103.86 186.63 79.4195 181.409L79.324 181.856C103.801 187.085 132.572 189.875 162.002 189.875V189.417ZM161.773 164.212V189.646H162.231V164.212H161.773ZM162.002 163.983C161.91 163.983 161.817 163.983 161.725 163.983V164.441C161.818 164.441 161.91 164.441 162.002 164.441L162.002 163.983ZM161.725 163.983C133.414 163.983 107.791 161.509 89.2504 157.511C79.9784 155.511 72.4904 153.134 67.3259 150.501C64.7434 149.184 62.7534 147.809 61.4118 146.396C60.0712 144.983 59.3909 143.546 59.3909 142.096H58.9333C58.9333 143.7 59.688 145.244 61.0798 146.711C62.4707 148.176 64.5107 149.579 67.1181 150.909C72.3336 153.567 79.8656 155.955 89.1539 157.958C107.734 161.965 133.392 164.441 161.725 164.441V163.983ZM59.3909 142.096C59.3909 140.646 60.0712 139.209 61.4118 137.796C62.7534 136.383 64.7434 135.008 67.3259 133.691C72.4904 131.058 79.9784 128.681 89.2504 126.681C107.791 122.683 133.414 120.209 161.725 120.209V119.751C133.392 119.751 107.734 122.227 89.1539 126.234C79.8656 128.237 72.3336 130.625 67.1181 133.284C64.5107 134.613 62.4707 136.016 61.0798 137.481C59.688 138.948 58.9333 140.492 58.9333 142.096H59.3909ZM161.725 120.209C190.036 120.209 215.66 122.683 234.2 126.681C243.472 128.681 250.96 131.058 256.124 133.691C258.707 135.008 260.697 136.383 262.039 137.796C263.379 139.209 264.06 140.646 264.06 142.096H264.517C264.517 140.492 263.762 138.948 262.371 137.481C260.98 136.016 258.94 134.613 256.332 133.284C251.117 130.625 243.585 128.237 234.297 126.234C215.716 122.227 190.058 119.751 161.725 119.751V120.209ZM264.06 142.096C264.06 142.096 264.06 142.096 264.06 142.096V142.096V142.096C264.06 142.096 264.06 142.096 264.06 142.096C264.06 142.096 264.06 142.096 264.06 142.096C264.06 142.096 264.06 142.096 264.06 142.096V142.096V142.096C264.06 142.096 264.06 142.096 264.06 142.096C264.06 142.096 264.06 142.096 264.06 142.096C264.06 142.096 264.06 142.096 264.06 142.096V142.096C264.06 142.096 264.06 142.096 264.06 142.096C264.06 142.096 264.06 142.096 264.06 142.096C264.06 142.096 264.06 142.096 264.06 142.096V142.096C264.06 142.096 264.06 142.096 264.06 142.096C264.06 142.096 264.06 142.096 264.06 142.096V142.096V142.096C264.06 142.096 264.06 142.096 264.06 142.096C264.06 142.096 264.06 142.096 264.06 142.096V142.096C264.06 142.096 264.06 142.096 264.06 142.096C264.06 142.096 264.06 142.096 264.06 142.096V142.096V142.096C264.06 142.096 264.06 142.096 264.06 142.096C264.06 142.096 264.06 142.096 264.06 142.096V142.096C264.06 142.096 264.06 142.096 264.06 142.096C264.06 142.096 264.06 142.096 264.06 142.096V142.096C264.06 142.096 264.06 142.096 264.06 142.096C264.06 142.096 264.06 142.096 264.06 142.096V142.096V142.096C264.06 142.096 264.06 142.096 264.06 142.096C264.06 142.096 264.06 142.096 264.06 142.096V142.096C264.06 142.096 264.06 142.096 264.06 142.096C264.06 142.096 264.06 142.096 264.06 142.096V142.096C264.06 142.096 264.06 142.096 264.06 142.096C264.06 142.096 264.06 142.096 264.06 142.096V142.096C264.06 142.096 264.06 142.096 264.06 142.096C264.06 142.096 264.06 142.096 264.06 142.096C264.06 142.096 264.06 142.096 264.06 142.096V142.096C264.06 142.096 264.06 142.096 264.06 142.096C264.06 142.096 264.06 142.096 264.06 142.096V142.096C264.06 142.096 264.06 142.096 264.06 142.096C264.06 142.096 264.06 142.096 264.06 142.096C264.06 142.096 264.06 142.096 264.06 142.096V142.096C264.06 142.096 264.06 142.096 264.06 142.096C264.06 142.096 264.06 142.096 264.06 142.096V142.096C264.06 142.096 264.06 142.096 264.06 142.096C264.06 142.096 264.06 142.096 264.06 142.096C264.06 142.096 264.06 142.096 264.06 142.096V142.096C264.06 142.096 264.06 142.096 264.06 142.096C264.06 142.096 264.06 142.096 264.06 142.096C264.06 142.096 264.06 142.096 264.06 142.096V142.096V142.096C264.06 142.096 264.06 142.096 264.06 142.096C264.06 142.096 264.06 142.096 264.06 142.096C264.06 142.096 264.06 142.096 264.06 142.096V142.096V142.096C264.06 142.096 264.06 142.096 264.06 142.096C264.06 142.096 264.06 142.096 264.06 142.096H264.517C264.517 142.096 264.517 142.096 264.517 142.096C264.517 142.096 264.517 142.096 264.517 142.096V142.096V142.096C264.517 142.096 264.517 142.096 264.517 142.096C264.517 142.096 264.517 142.096 264.517 142.096C264.517 142.096 264.517 142.096 264.517 142.096V142.096V142.096C264.517 142.096 264.517 142.096 264.517 142.096C264.517 142.096 264.517 142.096 264.517 142.096C264.517 142.096 264.517 142.096 264.517 142.096V142.096C264.517 142.096 264.517 142.096 264.517 142.096C264.517 142.096 264.517 142.096 264.517 142.096C264.517 142.096 264.517 142.096 264.517 142.096V142.096C264.517 142.096 264.517 142.096 264.517 142.096C264.517 142.096 264.517 142.096 264.517 142.096V142.096C264.517 142.096 264.517 142.096 264.517 142.096C264.517 142.096 264.517 142.096 264.517 142.096C264.517 142.096 264.517 142.096 264.517 142.096V142.096C264.517 142.096 264.517 142.096 264.517 142.096C264.517 142.096 264.517 142.096 264.517 142.096V142.096C264.517 142.096 264.517 142.096 264.517 142.096C264.517 142.096 264.517 142.096 264.517 142.096C264.517 142.096 264.517 142.096 264.517 142.096V142.096C264.517 142.096 264.517 142.096 264.517 142.096C264.517 142.096 264.517 142.096 264.517 142.096V142.096C264.517 142.096 264.517 142.096 264.517 142.096C264.517 142.096 264.517 142.096 264.517 142.096V142.096C264.517 142.096 264.517 142.096 264.517 142.096C264.517 142.096 264.517 142.096 264.517 142.096V142.096V142.096C264.517 142.096 264.517 142.096 264.517 142.096C264.517 142.096 264.517 142.096 264.517 142.096V142.096C264.517 142.096 264.517 142.096 264.517 142.096C264.517 142.096 264.517 142.096 264.517 142.096V142.096C264.517 142.096 264.517 142.096 264.517 142.096C264.517 142.096 264.517 142.096 264.517 142.096V142.096V142.096C264.517 142.096 264.517 142.096 264.517 142.096C264.517 142.096 264.517 142.096 264.517 142.096V142.096C264.517 142.096 264.517 142.096 264.517 142.096C264.517 142.096 264.517 142.096 264.517 142.096V142.096V142.096C264.517 142.096 264.517 142.096 264.517 142.096C264.517 142.096 264.517 142.096 264.517 142.096V142.096C264.517 142.096 264.517 142.096 264.517 142.096C264.517 142.096 264.517 142.096 264.517 142.096C264.517 142.096 264.517 142.096 264.517 142.096V142.096C264.517 142.096 264.517 142.096 264.517 142.096C264.517 142.096 264.517 142.096 264.517 142.096C264.517 142.096 264.517 142.096 264.517 142.096V142.096V142.096C264.517 142.096 264.517 142.096 264.517 142.096C264.517 142.096 264.517 142.096 264.517 142.096C264.517 142.096 264.517 142.096 264.517 142.096V142.096V142.096C264.517 142.096 264.517 142.096 264.517 142.096H264.06ZM310.732 141.868L264.288 141.868V142.325L310.732 142.325V141.868ZM285.568 115.886C293.725 119.788 299.964 124.027 304.162 128.451C308.359 132.874 310.503 137.47 310.503 142.096H310.961C310.961 137.319 308.744 132.616 304.494 128.136C300.245 123.657 293.952 119.39 285.765 115.473L285.568 115.886ZM218.889 98.3932C246.053 101.99 269.255 108.08 285.568 115.886L285.765 115.473C269.393 107.639 246.138 101.54 218.949 97.9396L218.889 98.3932ZM133.001 95.6889C161.837 93.8551 191.727 94.7964 218.889 98.3932L218.949 97.9396C191.756 94.3386 161.837 93.3966 132.972 95.2322L133.001 95.6889ZM56.9034 108.692C77.6811 102.049 104.163 97.5228 133.001 95.6889L132.972 95.2322C104.108 97.0677 77.5869 101.599 56.764 108.256L56.9034 108.692ZM16.3236 132.941C19.1666 128.371 24.1092 123.97 30.9509 119.878C37.7904 115.787 46.5146 112.013 56.9034 108.692L56.764 108.256C46.3525 111.584 37.5939 115.372 30.716 119.485C23.8403 123.598 18.8309 128.045 15.9351 132.699L16.3236 132.941ZM24.7328 160.112C19.1257 155.784 15.6137 151.258 14.2064 146.69C12.8019 142.131 13.4852 137.503 16.3236 132.941L15.9351 132.699C13.0347 137.361 12.3213 142.125 13.7691 146.824C15.214 151.515 18.8032 156.113 24.4532 160.474L24.7328 160.112ZM79.4195 181.409C54.9727 176.186 35.9494 168.769 24.7328 160.112L24.4532 160.474C35.7506 169.194 54.8536 176.629 79.324 181.856L79.4195 181.409Z" fill="white"/>
<path fill-rule="evenodd" clip-rule="evenodd" d="M245.491 206.259V218.398H310.733V192.965H264.432C264.343 197.919 257.342 202.506 245.491 206.259ZM310.732 218.399C310.732 224.643 306.885 230.826 299.411 236.595C291.937 242.364 280.981 247.606 267.17 252.022C253.359 256.437 236.963 259.939 218.919 262.329C200.874 264.719 181.534 265.948 162.002 265.948L162.002 218.399H310.732Z" fill="#D9D9D9"/>
<path d="M245.491 206.259L245.421 206.041L245.262 206.092V206.259H245.491ZM245.491 218.398H245.262V218.627H245.491V218.398ZM310.733 218.398V218.627H310.962V218.398H310.733ZM310.733 192.965H310.962V192.736H310.733V192.965ZM264.432 192.965V192.736H264.207L264.203 192.961L264.432 192.965ZM310.732 218.399H310.961V218.17H310.732V218.399ZM267.17 252.022L267.24 252.239L267.17 252.022ZM218.919 262.329L218.889 262.102L218.919 262.329ZM162.002 265.948H161.773L161.773 266.177H162.002V265.948ZM162.002 218.399V218.17H161.773L161.773 218.399H162.002ZM245.262 206.259V218.398H245.719V206.259H245.262ZM245.491 218.627H310.733V218.169H245.491V218.627ZM310.962 218.398V192.965H310.504V218.398H310.962ZM310.733 192.736H264.432V193.194H310.733V192.736ZM264.203 192.961C264.161 195.325 262.466 197.652 259.242 199.874C256.026 202.091 251.337 204.167 245.421 206.041L245.56 206.478C251.495 204.598 256.232 202.504 259.502 200.251C262.764 198.002 264.614 195.559 264.661 192.969L264.203 192.961ZM299.551 236.777C307.052 230.987 310.961 224.745 310.961 218.399H310.504C310.504 224.542 306.719 230.666 299.271 236.414L299.551 236.777ZM267.24 252.239C281.064 247.82 292.047 242.568 299.551 236.777L299.271 236.414C291.826 242.161 280.898 247.392 267.101 251.804L267.24 252.239ZM218.949 262.556C237.004 260.165 253.413 256.66 267.24 252.239L267.101 251.804C253.305 256.214 236.923 259.714 218.889 262.102L218.949 262.556ZM162.002 266.177C181.543 266.177 200.893 264.947 218.949 262.556L218.889 262.102C200.854 264.49 181.524 265.72 162.002 265.72V266.177ZM161.773 218.399L161.773 265.948H162.231L162.231 218.399H161.773ZM310.732 218.17H162.002V218.628H310.732V218.17Z" fill="white"/>
<path fill-rule="evenodd" clip-rule="evenodd" d="M162.002 215.081C218.519 215.049 264.288 205.16 264.288 192.965C264.288 192.965 264.288 192.965 264.288 192.965H310.732C310.732 199.209 306.885 205.392 299.411 211.161C291.937 216.93 280.981 222.172 267.17 226.587C253.359 231.003 236.963 234.505 218.919 236.895C200.874 239.284 181.534 240.514 162.002 240.514L162.002 215.081Z" fill="white"/>
<path d="M162.002 215.081L162.002 214.853L161.773 214.853L161.773 215.081H162.002ZM264.288 192.965V192.736H264.06V192.965H264.288ZM310.732 192.965H310.961V192.736H310.732V192.965ZM299.411 211.161L299.551 211.342L299.411 211.161ZM267.17 226.587L267.24 226.805L267.17 226.587ZM218.919 236.895L218.889 236.668L218.919 236.895ZM162.002 240.514H161.773L161.773 240.743H162.002V240.514ZM264.06 192.965C264.06 194.413 263.382 195.848 262.045 197.258C260.708 198.67 258.724 200.042 256.15 201.357C251.001 203.987 243.536 206.362 234.291 208.361C215.804 212.357 190.249 214.837 162.002 214.853L162.002 215.31C190.272 215.294 215.86 212.813 234.387 208.808C243.649 206.806 251.158 204.42 256.358 201.765C258.957 200.437 260.991 199.036 262.377 197.573C263.765 196.108 264.517 194.567 264.517 192.965H264.06ZM264.06 192.965C264.06 192.965 264.06 192.965 264.06 192.965C264.06 192.965 264.06 192.965 264.06 192.965C264.06 192.965 264.06 192.965 264.06 192.965C264.06 192.965 264.06 192.965 264.06 192.965C264.06 192.965 264.06 192.965 264.06 192.965C264.06 192.965 264.06 192.965 264.06 192.965C264.06 192.965 264.06 192.965 264.06 192.965C264.06 192.965 264.06 192.965 264.06 192.965C264.06 192.965 264.06 192.965 264.06 192.965C264.06 192.965 264.06 192.965 264.06 192.965C264.06 192.965 264.06 192.965 264.06 192.965C264.06 192.965 264.06 192.965 264.06 192.965C264.06 192.965 264.06 192.965 264.06 192.965C264.06 192.965 264.06 192.965 264.06 192.965C264.06 192.965 264.06 192.965 264.06 192.965C264.06 192.965 264.06 192.965 264.06 192.965C264.06 192.965 264.06 192.965 264.06 192.965C264.06 192.965 264.06 192.965 264.06 192.965C264.06 192.965 264.06 192.965 264.06 192.965C264.06 192.965 264.06 192.965 264.06 192.965C264.06 192.965 264.06 192.965 264.06 192.965C264.06 192.965 264.06 192.965 264.06 192.965C264.06 192.965 264.06 192.965 264.06 192.965C264.06 192.965 264.06 192.965 264.06 192.965C264.06 192.965 264.06 192.965 264.06 192.965C264.06 192.965 264.06 192.965 264.06 192.965C264.06 192.965 264.06 192.965 264.06 192.965C264.06 192.965 264.06 192.965 264.06 192.965C264.06 192.965 264.06 192.965 264.06 192.965C264.06 192.965 264.06 192.965 264.06 192.965C264.06 192.965 264.06 192.965 264.06 192.965C264.06 192.965 264.06 192.965 264.06 192.965C264.06 192.965 264.06 192.965 264.06 192.965C264.06 192.965 264.06 192.965 264.06 192.965C264.06 192.965 264.06 192.965 264.06 192.965C264.06 192.965 264.06 192.965 264.06 192.965C264.06 192.965 264.06 192.965 264.06 192.965C264.06 192.965 264.06 192.965 264.06 192.965C264.06 192.965 264.06 192.965 264.06 192.965C264.06 192.965 264.06 192.965 264.06 192.965C264.06 192.965 264.06 192.965 264.06 192.965C264.06 192.965 264.06 192.965 264.06 192.965C264.06 192.965 264.06 192.965 264.06 192.965C264.06 192.965 264.06 192.965 264.06 192.965C264.06 192.965 264.06 192.965 264.06 192.965C264.06 192.965 264.06 192.965 264.06 192.965C264.06 192.965 264.06 192.965 264.06 192.965C264.06 192.965 264.06 192.965 264.06 192.965C264.06 192.965 264.06 192.965 264.06 192.965C264.06 192.965 264.06 192.965 264.06 192.965C264.06 192.965 264.06 192.965 264.06 192.965C264.06 192.965 264.06 192.965 264.06 192.965C264.06 192.965 264.06 192.965 264.06 192.965C264.06 192.965 264.06 192.965 264.06 192.965C264.06 192.965 264.06 192.965 264.06 192.965C264.06 192.965 264.06 192.965 264.06 192.965C264.06 192.965 264.06 192.965 264.06 192.965C264.06 192.965 264.06 192.965 264.06 192.965C264.06 192.965 264.06 192.965 264.06 192.965C264.06 192.965 264.06 192.965 264.06 192.965C264.06 192.965 264.06 192.965 264.06 192.965C264.06 192.965 264.06 192.965 264.06 192.965C264.06 192.965 264.06 192.965 264.06 192.965C264.06 192.965 264.06 192.965 264.06 192.965C264.06 192.965 264.06 192.965 264.06 192.965C264.06 192.965 264.06 192.965 264.06 192.965C264.06 192.965 264.06 192.965 264.06 192.965C264.06 192.965 264.06 192.965 264.06 192.965C264.06 192.965 264.06 192.965 264.06 192.965C264.06 192.965 264.06 192.965 264.06 192.965C264.06 192.965 264.06 192.965 264.06 192.965C264.06 192.965 264.06 192.965 264.06 192.965C264.06 192.965 264.06 192.965 264.06 192.965C264.06 192.965 264.06 192.965 264.06 192.965C264.06 192.965 264.06 192.965 264.06 192.965C264.06 192.965 264.06 192.965 264.06 192.965C264.06 192.965 264.06 192.965 264.06 192.965C264.06 192.965 264.06 192.965 264.06 192.965C264.06 192.965 264.06 192.965 264.06 192.965C264.06 192.965 264.06 192.965 264.06 192.965C264.06 192.965 264.06 192.965 264.06 192.965C264.06 192.965 264.06 192.965 264.06 192.965C264.06 192.965 264.06 192.965 264.06 192.965C264.06 192.965 264.06 192.965 264.06 192.965C264.06 192.965 264.06 192.965 264.06 192.965C264.06 192.965 264.06 192.965 264.06 192.965C264.06 192.965 264.06 192.965 264.06 192.965C264.06 192.965 264.06 192.965 264.06 192.965C264.06 192.965 264.06 192.965 264.06 192.965C264.06 192.965 264.06 192.965 264.06 192.965C264.06 192.965 264.06 192.965 264.06 192.965C264.06 192.965 264.06 192.965 264.06 192.965C264.06 192.965 264.06 192.965 264.06 192.965C264.06 192.965 264.06 192.965 264.06 192.965C264.06 192.965 264.06 192.965 264.06 192.965C264.06 192.965 264.06 192.965 264.06 192.965C264.06 192.965 264.06 192.965 264.06 192.965C264.06 192.965 264.06 192.965 264.06 192.965C264.06 192.965 264.06 192.965 264.06 192.965C264.06 192.965 264.06 192.965 264.06 192.965C264.06 192.965 264.06 192.965 264.06 192.965C264.06 192.965 264.06 192.965 264.06 192.965C264.06 192.965 264.06 192.965 264.06 192.965C264.06 192.965 264.06 192.965 264.06 192.965C264.06 192.965 264.06 192.965 264.06 192.965C264.06 192.965 264.06 192.965 264.06 192.965C264.06 192.965 264.06 192.965 264.06 192.965C264.06 192.965 264.06 192.965 264.06 192.965C264.06 192.965 264.06 192.965 264.06 192.965C264.06 192.965 264.06 192.965 264.06 192.965C264.06 192.965 264.06 192.965 264.06 192.965C264.06 192.965 264.06 192.965 264.06 192.965C264.06 192.965 264.06 192.965 264.06 192.965C264.06 192.965 264.06 192.965 264.06 192.965C264.06 192.965 264.06 192.965 264.06 192.965C264.06 192.965 264.06 192.965 264.06 192.965C264.06 192.965 264.06 192.965 264.06 192.965C264.06 192.965 264.06 192.965 264.06 192.965C264.06 192.965 264.06 192.965 264.06 192.965C264.06 192.965 264.06 192.965 264.06 192.965C264.06 192.965 264.06 192.965 264.06 192.965C264.06 192.965 264.06 192.965 264.06 192.965C264.06 192.965 264.06 192.965 264.06 192.965C264.06 192.965 264.06 192.965 264.06 192.965C264.06 192.965 264.06 192.965 264.06 192.965C264.06 192.965 264.06 192.965 264.06 192.965C264.06 192.965 264.06 192.965 264.06 192.965C264.06 192.965 264.06 192.965 264.06 192.965C264.06 192.965 264.06 192.965 264.06 192.965C264.06 192.965 264.06 192.965 264.06 192.965C264.06 192.965 264.06 192.965 264.06 192.965C264.06 192.965 264.06 192.965 264.06 192.965C264.06 192.965 264.06 192.965 264.06 192.965C264.06 192.965 264.06 192.965 264.06 192.965C264.06 192.965 264.06 192.965 264.06 192.965C264.06 192.965 264.06 192.965 264.06 192.965C264.06 192.965 264.06 192.965 264.06 192.965C264.06 192.965 264.06 192.965 264.06 192.965C264.06 192.965 264.06 192.965 264.06 192.965C264.06 192.965 264.06 192.965 264.06 192.965C264.06 192.965 264.06 192.965 264.06 192.965C264.06 192.965 264.06 192.965 264.06 192.965C264.06 192.965 264.06 192.965 264.06 192.965C264.06 192.965 264.06 192.965 264.06 192.965C264.06 192.965 264.06 192.965 264.06 192.965C264.06 192.965 264.06 192.965 264.06 192.965C264.06 192.965 264.06 192.965 264.06 192.965C264.06 192.965 264.06 192.965 264.06 192.965C264.06 192.965 264.06 192.965 264.06 192.965C264.06 192.965 264.06 192.965 264.06 192.965C264.06 192.965 264.06 192.965 264.06 192.965C264.06 192.965 264.06 192.965 264.06 192.965C264.06 192.965 264.06 192.965 264.06 192.965C264.06 192.965 264.06 192.965 264.06 192.965C264.06 192.965 264.06 192.965 264.06 192.965C264.06 192.965 264.06 192.965 264.06 192.965C264.06 192.965 264.06 192.965 264.06 192.965C264.06 192.965 264.06 192.965 264.06 192.965C264.06 192.965 264.06 192.965 264.06 192.965C264.06 192.965 264.06 192.965 264.06 192.965C264.06 192.965 264.06 192.965 264.06 192.965C264.06 192.965 264.06 192.965 264.06 192.965C264.06 192.965 264.06 192.965 264.06 192.965C264.06 192.965 264.06 192.965 264.06 192.965C264.06 192.965 264.06 192.965 264.06 192.965C264.06 192.965 264.06 192.965 264.06 192.965C264.06 192.965 264.06 192.965 264.06 192.965C264.06 192.965 264.06 192.965 264.06 192.965C264.06 192.965 264.06 192.965 264.06 192.965C264.06 192.965 264.06 192.965 264.06 192.965C264.06 192.965 264.06 192.965 264.06 192.965C264.06 192.965 264.06 192.965 264.06 192.965C264.06 192.965 264.06 192.965 264.06 192.965C264.06 192.965 264.06 192.965 264.06 192.965C264.06 192.965 264.06 192.965 264.06 192.965C264.06 192.965 264.06 192.965 264.06 192.965C264.06 192.965 264.06 192.965 264.06 192.965C264.06 192.965 264.06 192.965 264.06 192.965C264.06 192.965 264.06 192.965 264.06 192.965C264.06 192.965 264.06 192.965 264.06 192.965C264.06 192.965 264.06 192.965 264.06 192.965C264.06 192.965 264.06 192.965 264.06 192.965C264.06 192.965 264.06 192.965 264.06 192.965C264.06 192.965 264.06 192.965 264.06 192.965C264.06 192.965 264.06 192.965 264.06 192.965C264.06 192.965 264.06 192.965 264.06 192.965C264.06 192.965 264.06 192.965 264.06 192.965C264.06 192.965 264.06 192.965 264.06 192.965C264.06 192.965 264.06 192.965 264.06 192.965C264.06 192.965 264.06 192.965 264.06 192.965C264.06 192.965 264.06 192.965 264.06 192.965C264.06 192.965 264.06 192.965 264.06 192.965C264.06 192.965 264.06 192.965 264.06 192.965C264.06 192.965 264.06 192.965 264.06 192.965C264.06 192.965 264.06 192.965 264.06 192.965C264.06 192.965 264.06 192.965 264.06 192.965C264.06 192.965 264.06 192.965 264.06 192.965C264.06 192.965 264.06 192.965 264.06 192.965C264.06 192.965 264.06 192.965 264.06 192.965C264.06 192.965 264.06 192.965 264.06 192.965C264.06 192.965 264.06 192.965 264.06 192.965C264.06 192.965 264.06 192.965 264.06 192.965C264.06 192.965 264.06 192.965 264.06 192.965C264.06 192.965 264.06 192.965 264.06 192.965C264.06 192.965 264.06 192.965 264.06 192.965C264.06 192.965 264.06 192.965 264.06 192.965C264.06 192.965 264.06 192.965 264.06 192.965C264.06 192.965 264.06 192.965 264.06 192.965C264.06 192.965 264.06 192.965 264.06 192.965C264.06 192.965 264.06 192.965 264.06 192.965C264.06 192.965 264.06 192.965 264.06 192.965C264.06 192.965 264.06 192.965 264.06 192.965C264.06 192.965 264.06 192.965 264.06 192.965C264.06 192.965 264.06 192.965 264.06 192.965C264.06 192.965 264.06 192.965 264.06 192.965C264.06 192.965 264.06 192.965 264.06 192.965C264.06 192.965 264.06 192.965 264.06 192.965C264.06 192.965 264.06 192.965 264.06 192.965C264.06 192.965 264.06 192.965 264.06 192.965C264.06 192.965 264.06 192.965 264.06 192.965C264.06 192.965 264.06 192.965 264.06 192.965C264.06 192.965 264.06 192.965 264.06 192.965C264.06 192.965 264.06 192.965 264.06 192.965C264.06 192.965 264.06 192.965 264.06 192.965C264.06 192.965 264.06 192.965 264.06 192.965C264.06 192.965 264.06 192.965 264.06 192.965C264.06 192.965 264.06 192.965 264.06 192.965C264.06 192.965 264.06 192.965 264.06 192.965C264.06 192.965 264.06 192.965 264.06 192.965C264.06 192.965 264.06 192.965 264.06 192.965C264.06 192.965 264.06 192.965 264.06 192.965C264.06 192.965 264.06 192.965 264.06 192.965C264.06 192.965 264.06 192.965 264.06 192.965C264.06 192.965 264.06 192.965 264.06 192.965C264.06 192.965 264.06 192.965 264.06 192.965C264.06 192.965 264.06 192.965 264.06 192.965C264.06 192.965 264.06 192.965 264.06 192.965C264.06 192.965 264.06 192.965 264.06 192.965C264.06 192.965 264.06 192.965 264.06 192.965C264.06 192.965 264.06 192.965 264.06 192.965C264.06 192.965 264.06 192.965 264.06 192.965C264.06 192.965 264.06 192.965 264.06 192.965C264.06 192.965 264.06 192.965 264.06 192.965C264.06 192.965 264.06 192.965 264.06 192.965C264.06 192.965 264.06 192.965 264.06 192.965C264.06 192.965 264.06 192.965 264.06 192.965C264.06 192.965 264.06 192.965 264.06 192.965C264.06 192.965 264.06 192.965 264.06 192.965C264.06 192.965 264.06 192.965 264.06 192.965C264.06 192.965 264.06 192.965 264.06 192.965C264.06 192.965 264.06 192.965 264.06 192.965C264.06 192.965 264.06 192.965 264.06 192.965C264.06 192.965 264.06 192.965 264.06 192.965C264.06 192.965 264.06 192.965 264.06 192.965C264.06 192.965 264.06 192.965 264.06 192.965C264.06 192.965 264.06 192.965 264.06 192.965C264.06 192.965 264.06 192.965 264.06 192.965C264.06 192.965 264.06 192.965 264.06 192.965C264.06 192.965 264.06 192.965 264.06 192.965C264.06 192.965 264.06 192.965 264.06 192.965C264.06 192.965 264.06 192.965 264.06 192.965C264.06 192.965 264.06 192.965 264.06 192.965C264.06 192.965 264.06 192.965 264.06 192.965C264.06 192.965 264.06 192.965 264.06 192.965C264.06 192.965 264.06 192.965 264.06 192.965C264.06 192.965 264.06 192.965 264.06 192.965C264.06 192.965 264.06 192.965 264.06 192.965C264.06 192.965 264.06 192.965 264.06 192.965C264.06 192.965 264.06 192.965 264.06 192.965C264.06 192.965 264.06 192.965 264.06 192.965C264.06 192.965 264.06 192.965 264.06 192.965C264.06 192.965 264.06 192.965 264.06 192.965C264.06 192.965 264.06 192.965 264.06 192.965C264.06 192.965 264.06 192.965 264.06 192.965C264.06 192.965 264.06 192.965 264.06 192.965C264.06 192.965 264.06 192.965 264.06 192.965C264.06 192.965 264.06 192.965 264.06 192.965C264.06 192.965 264.06 192.965 264.06 192.965C264.06 192.965 264.06 192.965 264.06 192.965C264.06 192.965 264.06 192.965 264.06 192.965C264.06 192.965 264.06 192.965 264.06 192.965C264.06 192.965 264.06 192.965 264.06 192.965C264.06 192.965 264.06 192.965 264.06 192.965C264.06 192.965 264.06 192.965 264.06 192.965C264.06 192.965 264.06 192.965 264.06 192.965C264.06 192.965 264.06 192.965 264.06 192.965C264.06 192.965 264.06 192.965 264.06 192.965C264.06 192.965 264.06 192.965 264.06 192.965C264.06 192.965 264.06 192.965 264.06 192.965C264.06 192.965 264.06 192.965 264.06 192.965C264.06 192.965 264.06 192.965 264.06 192.965C264.06 192.965 264.06 192.965 264.06 192.965C264.06 192.965 264.06 192.965 264.06 192.965C264.06 192.965 264.06 192.965 264.06 192.965C264.06 192.965 264.06 192.965 264.06 192.965C264.06 192.965 264.06 192.965 264.06 192.965C264.06 192.965 264.06 192.965 264.06 192.965C264.06 192.965 264.06 192.965 264.06 192.965C264.06 192.965 264.06 192.965 264.06 192.965C264.06 192.965 264.06 192.965 264.06 192.965C264.06 192.965 264.06 192.965 264.06 192.965C264.06 192.965 264.06 192.965 264.06 192.965C264.06 192.965 264.06 192.965 264.06 192.965C264.06 192.965 264.06 192.965 264.06 192.965C264.06 192.965 264.06 192.965 264.06 192.965C264.06 192.965 264.06 192.965 264.06 192.965C264.06 192.965 264.06 192.965 264.06 192.965C264.06 192.965 264.06 192.965 264.06 192.965C264.06 192.965 264.06 192.965 264.06 192.965C264.06 192.965 264.06 192.965 264.06 192.965C264.06 192.965 264.06 192.965 264.06 192.965C264.06 192.965 264.06 192.965 264.06 192.965C264.06 192.965 264.06 192.965 264.06 192.965C264.06 192.965 264.06 192.965 264.06 192.965C264.06 192.965 264.06 192.965 264.06 192.965C264.06 192.965 264.06 192.965 264.06 192.965C264.06 192.965 264.06 192.965 264.06 192.965C264.06 192.965 264.06 192.965 264.06 192.965C264.06 192.965 264.06 192.965 264.06 192.965C264.06 192.965 264.06 192.965 264.06 192.965C264.06 192.965 264.06 192.965 264.06 192.965C264.06 192.965 264.06 192.965 264.06 192.965C264.06 192.965 264.06 192.965 264.06 192.965C264.06 192.965 264.06 192.965 264.06 192.965C264.06 192.965 264.06 192.965 264.06 192.965C264.06 192.965 264.06 192.965 264.06 192.965C264.06 192.965 264.06 192.965 264.06 192.965C264.06 192.965 264.06 192.965 264.06 192.965C264.06 192.965 264.06 192.965 264.06 192.965C264.06 192.965 264.06 192.965 264.06 192.965C264.06 192.965 264.06 192.965 264.06 192.965C264.06 192.965 264.06 192.965 264.06 192.965C264.06 192.965 264.06 192.965 264.06 192.965C264.06 192.965 264.06 192.965 264.06 192.965C264.06 192.965 264.06 192.965 264.06 192.965C264.06 192.965 264.06 192.965 264.06 192.965C264.06 192.965 264.06 192.965 264.06 192.965C264.06 192.965 264.06 192.965 264.06 192.965C264.06 192.965 264.06 192.965 264.06 192.965C264.06 192.965 264.06 192.965 264.06 192.965C264.06 192.965 264.06 192.965 264.06 192.965C264.06 192.965 264.06 192.965 264.06 192.965C264.06 192.965 264.06 192.965 264.06 192.965C264.06 192.965 264.06 192.965 264.06 192.965C264.06 192.965 264.06 192.965 264.06 192.965C264.06 192.965 264.06 192.965 264.06 192.965C264.06 192.965 264.06 192.965 264.06 192.965C264.06 192.965 264.06 192.965 264.06 192.965C264.06 192.965 264.06 192.965 264.06 192.965C264.06 192.965 264.06 192.965 264.06 192.965C264.06 192.965 264.06 192.965 264.06 192.965C264.06 192.965 264.06 192.965 264.06 192.965C264.06 192.965 264.06 192.965 264.06 192.965C264.06 192.965 264.06 192.965 264.06 192.965C264.06 192.965 264.06 192.965 264.06 192.965C264.06 192.965 264.06 192.965 264.06 192.965C264.06 192.965 264.06 192.965 264.06 192.965C264.06 192.965 264.06 192.965 264.06 192.965C264.06 192.965 264.06 192.965 264.06 192.965C264.06 192.965 264.06 192.965 264.06 192.965C264.06 192.965 264.06 192.965 264.06 192.965C264.06 192.965 264.06 192.965 264.06 192.965C264.06 192.965 264.06 192.965 264.06 192.965C264.06 192.965 264.06 192.965 264.06 192.965C264.06 192.965 264.06 192.965 264.06 192.965C264.06 192.965 264.06 192.965 264.06 192.965C264.06 192.965 264.06 192.965 264.06 192.965C264.06 192.965 264.06 192.965 264.06 192.965C264.06 192.965 264.06 192.965 264.06 192.965C264.06 192.965 264.06 192.965 264.06 192.965C264.06 192.965 264.06 192.965 264.06 192.965C264.06 192.965 264.06 192.965 264.06 192.965C264.06 192.965 264.06 192.965 264.06 192.965C264.06 192.965 264.06 192.965 264.06 192.965C264.06 192.965 264.06 192.965 264.06 192.965C264.06 192.965 264.06 192.965 264.06 192.965C264.06 192.965 264.06 192.965 264.06 192.965C264.06 192.965 264.06 192.965 264.06 192.965C264.06 192.965 264.06 192.965 264.06 192.965C264.06 192.965 264.06 192.965 264.06 192.965C264.06 192.965 264.06 192.965 264.06 192.965C264.06 192.965 264.06 192.965 264.06 192.965C264.06 192.965 264.06 192.965 264.06 192.965C264.06 192.965 264.06 192.965 264.06 192.965C264.06 192.965 264.06 192.965 264.06 192.965C264.06 192.965 264.06 192.965 264.06 192.965C264.06 192.965 264.06 192.965 264.06 192.965C264.06 192.965 264.06 192.965 264.06 192.965C264.06 192.965 264.06 192.965 264.06 192.965C264.06 192.965 264.06 192.965 264.06 192.965C264.06 192.965 264.06 192.965 264.06 192.965C264.06 192.965 264.06 192.965 264.06 192.965C264.06 192.965 264.06 192.965 264.06 192.965C264.06 192.965 264.06 192.965 264.06 192.965C264.06 192.965 264.06 192.965 264.06 192.965C264.06 192.965 264.06 192.965 264.06 192.965C264.06 192.965 264.06 192.965 264.06 192.965C264.06 192.965 264.06 192.965 264.06 192.965C264.06 192.965 264.06 192.965 264.06 192.965C264.06 192.965 264.06 192.965 264.06 192.965C264.06 192.965 264.06 192.965 264.06 192.965C264.06 192.965 264.06 192.965 264.06 192.965C264.06 192.965 264.06 192.965 264.06 192.965C264.06 192.965 264.06 192.965 264.06 192.965C264.06 192.965 264.06 192.965 264.06 192.965C264.06 192.965 264.06 192.965 264.06 192.965C264.06 192.965 264.06 192.965 264.06 192.965C264.06 192.965 264.06 192.965 264.06 192.965C264.06 192.965 264.06 192.965 264.06 192.965C264.06 192.965 264.06 192.965 264.06 192.965C264.06 192.965 264.06 192.965 264.06 192.965C264.06 192.965 264.06 192.965 264.06 192.965C264.06 192.965 264.06 192.965 264.06 192.965C264.06 192.965 264.06 192.965 264.06 192.965C264.06 192.965 264.06 192.965 264.06 192.965C264.06 192.965 264.06 192.965 264.06 192.965C264.06 192.965 264.06 192.965 264.06 192.965C264.06 192.965 264.06 192.965 264.06 192.965C264.06 192.965 264.06 192.965 264.06 192.965C264.06 192.965 264.06 192.965 264.06 192.965C264.06 192.965 264.06 192.965 264.06 192.965C264.06 192.965 264.06 192.965 264.06 192.965C264.06 192.965 264.06 192.965 264.06 192.965C264.06 192.965 264.06 192.965 264.06 192.965C264.06 192.965 264.06 192.965 264.06 192.965C264.06 192.965 264.06 192.965 264.06 192.965C264.06 192.965 264.06 192.965 264.06 192.965C264.06 192.965 264.06 192.965 264.06 192.965C264.06 192.965 264.06 192.965 264.06 192.965C264.06 192.965 264.06 192.965 264.06 192.965C264.06 192.965 264.06 192.965 264.06 192.965C264.06 192.965 264.06 192.965 264.06 192.965C264.06 192.965 264.06 192.965 264.06 192.965C264.06 192.965 264.06 192.965 264.06 192.965C264.06 192.965 264.06 192.965 264.06 192.965C264.06 192.965 264.06 192.965 264.06 192.965C264.06 192.965 264.06 192.965 264.06 192.965C264.06 192.965 264.06 192.965 264.06 192.965C264.06 192.965 264.06 192.965 264.06 192.965C264.06 192.965 264.06 192.965 264.06 192.965C264.06 192.965 264.06 192.965 264.06 192.965C264.06 192.965 264.06 192.965 264.06 192.965C264.06 192.965 264.06 192.965 264.06 192.965C264.06 192.965 264.06 192.965 264.06 192.965C264.06 192.965 264.06 192.965 264.06 192.965C264.06 192.965 264.06 192.965 264.06 192.965C264.06 192.965 264.06 192.965 264.06 192.965C264.06 192.965 264.06 192.965 264.06 192.965C264.06 192.965 264.06 192.965 264.06 192.965C264.06 192.965 264.06 192.965 264.06 192.965C264.06 192.965 264.06 192.965 264.06 192.965C264.06 192.965 264.06 192.965 264.06 192.965C264.06 192.965 264.06 192.965 264.06 192.965C264.06 192.965 264.06 192.965 264.06 192.965C264.06 192.965 264.06 192.965 264.06 192.965C264.06 192.965 264.06 192.965 264.06 192.965C264.06 192.965 264.06 192.965 264.06 192.965C264.06 192.965 264.06 192.965 264.06 192.965C264.06 192.965 264.06 192.965 264.06 192.965C264.06 192.965 264.06 192.965 264.06 192.965C264.06 192.965 264.06 192.965 264.06 192.965C264.06 192.965 264.06 192.965 264.06 192.965C264.06 192.965 264.06 192.965 264.06 192.965C264.06 192.965 264.06 192.965 264.06 192.965C264.06 192.965 264.06 192.965 264.06 192.965C264.06 192.965 264.06 192.965 264.06 192.965C264.06 192.965 264.06 192.965 264.06 192.965C264.06 192.965 264.06 192.965 264.06 192.965C264.06 192.965 264.06 192.965 264.06 192.965C264.06 192.965 264.06 192.965 264.06 192.965C264.06 192.965 264.06 192.965 264.06 192.965C264.06 192.965 264.06 192.965 264.06 192.965C264.06 192.965 264.06 192.965 264.06 192.965C264.06 192.965 264.06 192.965 264.06 192.965C264.06 192.965 264.06 192.965 264.06 192.965C264.06 192.965 264.06 192.965 264.06 192.965C264.06 192.965 264.06 192.965 264.06 192.965C264.06 192.965 264.06 192.965 264.06 192.965C264.06 192.965 264.06 192.965 264.06 192.965C264.06 192.965 264.06 192.965 264.06 192.965C264.06 192.965 264.06 192.965 264.06 192.965C264.06 192.965 264.06 192.965 264.06 192.965C264.06 192.965 264.06 192.965 264.06 192.965C264.06 192.965 264.06 192.965 264.06 192.965C264.06 192.965 264.06 192.965 264.06 192.965C264.06 192.965 264.06 192.965 264.06 192.965C264.06 192.965 264.06 192.965 264.06 192.965C264.06 192.965 264.06 192.965 264.06 192.965C264.06 192.965 264.06 192.965 264.06 192.965C264.06 192.965 264.06 192.965 264.06 192.965C264.06 192.965 264.06 192.965 264.06 192.965C264.06 192.965 264.06 192.965 264.06 192.965C264.06 192.965 264.06 192.965 264.06 192.965C264.06 192.965 264.06 192.965 264.06 192.965C264.06 192.965 264.06 192.965 264.06 192.965C264.06 192.965 264.06 192.965 264.06 192.965C264.06 192.965 264.06 192.965 264.06 192.965C264.06 192.965 264.06 192.965 264.06 192.965C264.06 192.965 264.06 192.965 264.06 192.965C264.06 192.965 264.06 192.965 264.06 192.965C264.06 192.965 264.06 192.965 264.06 192.965C264.06 192.965 264.06 192.965 264.06 192.965C264.06 192.965 264.06 192.965 264.06 192.965C264.06 192.965 264.06 192.965 264.06 192.965C264.06 192.965 264.06 192.965 264.06 192.965C264.06 192.965 264.06 192.965 264.06 192.965C264.06 192.965 264.06 192.965 264.06 192.965C264.06 192.965 264.06 192.965 264.06 192.965C264.06 192.965 264.06 192.965 264.06 192.965C264.06 192.965 264.06 192.965 264.06 192.965C264.06 192.965 264.06 192.965 264.06 192.965C264.06 192.965 264.06 192.965 264.06 192.965H264.517C264.517 192.965 264.517 192.965 264.517 192.965C264.517 192.965 264.517 192.965 264.517 192.965C264.517 192.965 264.517 192.965 264.517 192.965C264.517 192.965 264.517 192.965 264.517 192.965C264.517 192.965 264.517 192.965 264.517 192.965C264.517 192.965 264.517 192.965 264.517 192.965C264.517 192.965 264.517 192.965 264.517 192.965C264.517 192.965 264.517 192.965 264.517 192.965C264.517 192.965 264.517 192.965 264.517 192.965C264.517 192.965 264.517 192.965 264.517 192.965C264.517 192.965 264.517 192.965 264.517 192.965C264.517 192.965 264.517 192.965 264.517 192.965C264.517 192.965 264.517 192.965 264.517 192.965C264.517 192.965 264.517 192.965 264.517 192.965C264.517 192.965 264.517 192.965 264.517 192.965C264.517 192.965 264.517 192.965 264.517 192.965C264.517 192.965 264.517 192.965 264.517 192.965C264.517 192.965 264.517 192.965 264.517 192.965C264.517 192.965 264.517 192.965 264.517 192.965C264.517 192.965 264.517 192.965 264.517 192.965C264.517 192.965 264.517 192.965 264.517 192.965C264.517 192.965 264.517 192.965 264.517 192.965C264.517 192.965 264.517 192.965 264.517 192.965C264.517 192.965 264.517 192.965 264.517 192.965C264.517 192.965 264.517 192.965 264.517 192.965C264.517 192.965 264.517 192.965 264.517 192.965C264.517 192.965 264.517 192.965 264.517 192.965C264.517 192.965 264.517 192.965 264.517 192.965C264.517 192.965 264.517 192.965 264.517 192.965C264.517 192.965 264.517 192.965 264.517 192.965C264.517 192.965 264.517 192.965 264.517 192.965C264.517 192.965 264.517 192.965 264.517 192.965C264.517 192.965 264.517 192.965 264.517 192.965C264.517 192.965 264.517 192.965 264.517 192.965C264.517 192.965 264.517 192.965 264.517 192.965C264.517 192.965 264.517 192.965 264.517 192.965C264.517 192.965 264.517 192.965 264.517 192.965C264.517 192.965 264.517 192.965 264.517 192.965C264.517 192.965 264.517 192.965 264.517 192.965C264.517 192.965 264.517 192.965 264.517 192.965C264.517 192.965 264.517 192.965 264.517 192.965C264.517 192.965 264.517 192.965 264.517 192.965C264.517 192.965 264.517 192.965 264.517 192.965C264.517 192.965 264.517 192.965 264.517 192.965C264.517 192.965 264.517 192.965 264.517 192.965C264.517 192.965 264.517 192.965 264.517 192.965C264.517 192.965 264.517 192.965 264.517 192.965C264.517 192.965 264.517 192.965 264.517 192.965C264.517 192.965 264.517 192.965 264.517 192.965C264.517 192.965 264.517 192.965 264.517 192.965C264.517 192.965 264.517 192.965 264.517 192.965C264.517 192.965 264.517 192.965 264.517 192.965C264.517 192.965 264.517 192.965 264.517 192.965C264.517 192.965 264.517 192.965 264.517 192.965C264.517 192.965 264.517 192.965 264.517 192.965C264.517 192.965 264.517 192.965 264.517 192.965C264.517 192.965 264.517 192.965 264.517 192.965C264.517 192.965 264.517 192.965 264.517 192.965C264.517 192.965 264.517 192.965 264.517 192.965C264.517 192.965 264.517 192.965 264.517 192.965C264.517 192.965 264.517 192.965 264.517 192.965C264.517 192.965 264.517 192.965 264.517 192.965C264.517 192.965 264.517 192.965 264.517 192.965C264.517 192.965 264.517 192.965 264.517 192.965C264.517 192.965 264.517 192.965 264.517 192.965C264.517 192.965 264.517 192.965 264.517 192.965C264.517 192.965 264.517 192.965 264.517 192.965C264.517 192.965 264.517 192.965 264.517 192.965C264.517 192.965 264.517 192.965 264.517 192.965C264.517 192.965 264.517 192.965 264.517 192.965C264.517 192.965 264.517 192.965 264.517 192.965C264.517 192.965 264.517 192.965 264.517 192.965C264.517 192.965 264.517 192.965 264.517 192.965C264.517 192.965 264.517 192.965 264.517 192.965C264.517 192.965 264.517 192.965 264.517 192.965C264.517 192.965 264.517 192.965 264.517 192.965C264.517 192.965 264.517 192.965 264.517 192.965C264.517 192.965 264.517 192.965 264.517 192.965C264.517 192.965 264.517 192.965 264.517 192.965C264.517 192.965 264.517 192.965 264.517 192.965C264.517 192.965 264.517 192.965 264.517 192.965C264.517 192.965 264.517 192.965 264.517 192.965C264.517 192.965 264.517 192.965 264.517 192.965C264.517 192.965 264.517 192.965 264.517 192.965C264.517 192.965 264.517 192.965 264.517 192.965C264.517 192.965 264.517 192.965 264.517 192.965C264.517 192.965 264.517 192.965 264.517 192.965C264.517 192.965 264.517 192.965 264.517 192.965C264.517 192.965 264.517 192.965 264.517 192.965C264.517 192.965 264.517 192.965 264.517 192.965C264.517 192.965 264.517 192.965 264.517 192.965C264.517 192.965 264.517 192.965 264.517 192.965C264.517 192.965 264.517 192.965 264.517 192.965C264.517 192.965 264.517 192.965 264.517 192.965C264.517 192.965 264.517 192.965 264.517 192.965C264.517 192.965 264.517 192.965 264.517 192.965C264.517 192.965 264.517 192.965 264.517 192.965C264.517 192.965 264.517 192.965 264.517 192.965C264.517 192.965 264.517 192.965 264.517 192.965C264.517 192.965 264.517 192.965 264.517 192.965C264.517 192.965 264.517 192.965 264.517 192.965C264.517 192.965 264.517 192.965 264.517 192.965C264.517 192.965 264.517 192.965 264.517 192.965C264.517 192.965 264.517 192.965 264.517 192.965C264.517 192.965 264.517 192.965 264.517 192.965C264.517 192.965 264.517 192.965 264.517 192.965C264.517 192.965 264.517 192.965 264.517 192.965C264.517 192.965 264.517 192.965 264.517 192.965C264.517 192.965 264.517 192.965 264.517 192.965C264.517 192.965 264.517 192.965 264.517 192.965C264.517 192.965 264.517 192.965 264.517 192.965C264.517 192.965 264.517 192.965 264.517 192.965C264.517 192.965 264.517 192.965 264.517 192.965C264.517 192.965 264.517 192.965 264.517 192.965C264.517 192.965 264.517 192.965 264.517 192.965C264.517 192.965 264.517 192.965 264.517 192.965C264.517 192.965 264.517 192.965 264.517 192.965C264.517 192.965 264.517 192.965 264.517 192.965C264.517 192.965 264.517 192.965 264.517 192.965C264.517 192.965 264.517 192.965 264.517 192.965C264.517 192.965 264.517 192.965 264.517 192.965C264.517 192.965 264.517 192.965 264.517 192.965C264.517 192.965 264.517 192.965 264.517 192.965C264.517 192.965 264.517 192.965 264.517 192.965C264.517 192.965 264.517 192.965 264.517 192.965C264.517 192.965 264.517 192.965 264.517 192.965C264.517 192.965 264.517 192.965 264.517 192.965C264.517 192.965 264.517 192.965 264.517 192.965C264.517 192.965 264.517 192.965 264.517 192.965C264.517 192.965 264.517 192.965 264.517 192.965C264.517 192.965 264.517 192.965 264.517 192.965C264.517 192.965 264.517 192.965 264.517 192.965C264.517 192.965 264.517 192.965 264.517 192.965C264.517 192.965 264.517 192.965 264.517 192.965C264.517 192.965 264.517 192.965 264.517 192.965C264.517 192.965 264.517 192.965 264.517 192.965C264.517 192.965 264.517 192.965 264.517 192.965C264.517 192.965 264.517 192.965 264.517 192.965C264.517 192.965 264.517 192.965 264.517 192.965C264.517 192.965 264.517 192.965 264.517 192.965C264.517 192.965 264.517 192.965 264.517 192.965C264.517 192.965 264.517 192.965 264.517 192.965C264.517 192.965 264.517 192.965 264.517 192.965C264.517 192.965 264.517 192.965 264.517 192.965C264.517 192.965 264.517 192.965 264.517 192.965C264.517 192.965 264.517 192.965 264.517 192.965C264.517 192.965 264.517 192.965 264.517 192.965C264.517 192.965 264.517 192.965 264.517 192.965C264.517 192.965 264.517 192.965 264.517 192.965C264.517 192.965 264.517 192.965 264.517 192.965C264.517 192.965 264.517 192.965 264.517 192.965C264.517 192.965 264.517 192.965 264.517 192.965C264.517 192.965 264.517 192.965 264.517 192.965C264.517 192.965 264.517 192.965 264.517 192.965C264.517 192.965 264.517 192.965 264.517 192.965C264.517 192.965 264.517 192.965 264.517 192.965C264.517 192.965 264.517 192.965 264.517 192.965C264.517 192.965 264.517 192.965 264.517 192.965C264.517 192.965 264.517 192.965 264.517 192.965C264.517 192.965 264.517 192.965 264.517 192.965C264.517 192.965 264.517 192.965 264.517 192.965C264.517 192.965 264.517 192.965 264.517 192.965C264.517 192.965 264.517 192.965 264.517 192.965C264.517 192.965 264.517 192.965 264.517 192.965C264.517 192.965 264.517 192.965 264.517 192.965C264.517 192.965 264.517 192.965 264.517 192.965C264.517 192.965 264.517 192.965 264.517 192.965C264.517 192.965 264.517 192.965 264.517 192.965C264.517 192.965 264.517 192.965 264.517 192.965C264.517 192.965 264.517 192.965 264.517 192.965C264.517 192.965 264.517 192.965 264.517 192.965C264.517 192.965 264.517 192.965 264.517 192.965C264.517 192.965 264.517 192.965 264.517 192.965C264.517 192.965 264.517 192.965 264.517 192.965C264.517 192.965 264.517 192.965 264.517 192.965C264.517 192.965 264.517 192.965 264.517 192.965C264.517 192.965 264.517 192.965 264.517 192.965C264.517 192.965 264.517 192.965 264.517 192.965C264.517 192.965 264.517 192.965 264.517 192.965C264.517 192.965 264.517 192.965 264.517 192.965C264.517 192.965 264.517 192.965 264.517 192.965C264.517 192.965 264.517 192.965 264.517 192.965C264.517 192.965 264.517 192.965 264.517 192.965C264.517 192.965 264.517 192.965 264.517 192.965C264.517 192.965 264.517 192.965 264.517 192.965C264.517 192.965 264.517 192.965 264.517 192.965C264.517 192.965 264.517 192.965 264.517 192.965C264.517 192.965 264.517 192.965 264.517 192.965C264.517 192.965 264.517 192.965 264.517 192.965C264.517 192.965 264.517 192.965 264.517 192.965C264.517 192.965 264.517 192.965 264.517 192.965C264.517 192.965 264.517 192.965 264.517 192.965C264.517 192.965 264.517 192.965 264.517 192.965C264.517 192.965 264.517 192.965 264.517 192.965C264.517 192.965 264.517 192.965 264.517 192.965C264.517 192.965 264.517 192.965 264.517 192.965C264.517 192.965 264.517 192.965 264.517 192.965C264.517 192.965 264.517 192.965 264.517 192.965C264.517 192.965 264.517 192.965 264.517 192.965C264.517 192.965 264.517 192.965 264.517 192.965C264.517 192.965 264.517 192.965 264.517 192.965C264.517 192.965 264.517 192.965 264.517 192.965C264.517 192.965 264.517 192.965 264.517 192.965C264.517 192.965 264.517 192.965 264.517 192.965C264.517 192.965 264.517 192.965 264.517 192.965C264.517 192.965 264.517 192.965 264.517 192.965C264.517 192.965 264.517 192.965 264.517 192.965C264.517 192.965 264.517 192.965 264.517 192.965C264.517 192.965 264.517 192.965 264.517 192.965C264.517 192.965 264.517 192.965 264.517 192.965C264.517 192.965 264.517 192.965 264.517 192.965C264.517 192.965 264.517 192.965 264.517 192.965C264.517 192.965 264.517 192.965 264.517 192.965C264.517 192.965 264.517 192.965 264.517 192.965C264.517 192.965 264.517 192.965 264.517 192.965C264.517 192.965 264.517 192.965 264.517 192.965C264.517 192.965 264.517 192.965 264.517 192.965C264.517 192.965 264.517 192.965 264.517 192.965C264.517 192.965 264.517 192.965 264.517 192.965C264.517 192.965 264.517 192.965 264.517 192.965C264.517 192.965 264.517 192.965 264.517 192.965C264.517 192.965 264.517 192.965 264.517 192.965C264.517 192.965 264.517 192.965 264.517 192.965C264.517 192.965 264.517 192.965 264.517 192.965C264.517 192.965 264.517 192.965 264.517 192.965C264.517 192.965 264.517 192.965 264.517 192.965C264.517 192.965 264.517 192.965 264.517 192.965C264.517 192.965 264.517 192.965 264.517 192.965C264.517 192.965 264.517 192.965 264.517 192.965C264.517 192.965 264.517 192.965 264.517 192.965C264.517 192.965 264.517 192.965 264.517 192.965C264.517 192.965 264.517 192.965 264.517 192.965C264.517 192.965 264.517 192.965 264.517 192.965C264.517 192.965 264.517 192.965 264.517 192.965C264.517 192.965 264.517 192.965 264.517 192.965C264.517 192.965 264.517 192.965 264.517 192.965C264.517 192.965 264.517 192.965 264.517 192.965C264.517 192.965 264.517 192.965 264.517 192.965C264.517 192.965 264.517 192.965 264.517 192.965C264.517 192.965 264.517 192.965 264.517 192.965C264.517 192.965 264.517 192.965 264.517 192.965C264.517 192.965 264.517 192.965 264.517 192.965C264.517 192.965 264.517 192.965 264.517 192.965C264.517 192.965 264.517 192.965 264.517 192.965C264.517 192.965 264.517 192.965 264.517 192.965C264.517 192.965 264.517 192.965 264.517 192.965C264.517 192.965 264.517 192.965 264.517 192.965C264.517 192.965 264.517 192.965 264.517 192.965C264.517 192.965 264.517 192.965 264.517 192.965C264.517 192.965 264.517 192.965 264.517 192.965C264.517 192.965 264.517 192.965 264.517 192.965C264.517 192.965 264.517 192.965 264.517 192.965C264.517 192.965 264.517 192.965 264.517 192.965C264.517 192.965 264.517 192.965 264.517 192.965C264.517 192.965 264.517 192.965 264.517 192.965C264.517 192.965 264.517 192.965 264.517 192.965C264.517 192.965 264.517 192.965 264.517 192.965C264.517 192.965 264.517 192.965 264.517 192.965C264.517 192.965 264.517 192.965 264.517 192.965C264.517 192.965 264.517 192.965 264.517 192.965C264.517 192.965 264.517 192.965 264.517 192.965C264.517 192.965 264.517 192.965 264.517 192.965C264.517 192.965 264.517 192.965 264.517 192.965C264.517 192.965 264.517 192.965 264.517 192.965C264.517 192.965 264.517 192.965 264.517 192.965C264.517 192.965 264.517 192.965 264.517 192.965C264.517 192.965 264.517 192.965 264.517 192.965C264.517 192.965 264.517 192.965 264.517 192.965C264.517 192.965 264.517 192.965 264.517 192.965C264.517 192.965 264.517 192.965 264.517 192.965C264.517 192.965 264.517 192.965 264.517 192.965C264.517 192.965 264.517 192.965 264.517 192.965C264.517 192.965 264.517 192.965 264.517 192.965C264.517 192.965 264.517 192.965 264.517 192.965C264.517 192.965 264.517 192.965 264.517 192.965C264.517 192.965 264.517 192.965 264.517 192.965C264.517 192.965 264.517 192.965 264.517 192.965C264.517 192.965 264.517 192.965 264.517 192.965C264.517 192.965 264.517 192.965 264.517 192.965C264.517 192.965 264.517 192.965 264.517 192.965C264.517 192.965 264.517 192.965 264.517 192.965C264.517 192.965 264.517 192.965 264.517 192.965C264.517 192.965 264.517 192.965 264.517 192.965C264.517 192.965 264.517 192.965 264.517 192.965C264.517 192.965 264.517 192.965 264.517 192.965C264.517 192.965 264.517 192.965 264.517 192.965C264.517 192.965 264.517 192.965 264.517 192.965C264.517 192.965 264.517 192.965 264.517 192.965C264.517 192.965 264.517 192.965 264.517 192.965C264.517 192.965 264.517 192.965 264.517 192.965C264.517 192.965 264.517 192.965 264.517 192.965C264.517 192.965 264.517 192.965 264.517 192.965C264.517 192.965 264.517 192.965 264.517 192.965C264.517 192.965 264.517 192.965 264.517 192.965C264.517 192.965 264.517 192.965 264.517 192.965C264.517 192.965 264.517 192.965 264.517 192.965C264.517 192.965 264.517 192.965 264.517 192.965C264.517 192.965 264.517 192.965 264.517 192.965C264.517 192.965 264.517 192.965 264.517 192.965C264.517 192.965 264.517 192.965 264.517 192.965C264.517 192.965 264.517 192.965 264.517 192.965C264.517 192.965 264.517 192.965 264.517 192.965C264.517 192.965 264.517 192.965 264.517 192.965C264.517 192.965 264.517 192.965 264.517 192.965C264.517 192.965 264.517 192.965 264.517 192.965C264.517 192.965 264.517 192.965 264.517 192.965C264.517 192.965 264.517 192.965 264.517 192.965C264.517 192.965 264.517 192.965 264.517 192.965C264.517 192.965 264.517 192.965 264.517 192.965C264.517 192.965 264.517 192.965 264.517 192.965C264.517 192.965 264.517 192.965 264.517 192.965C264.517 192.965 264.517 192.965 264.517 192.965C264.517 192.965 264.517 192.965 264.517 192.965C264.517 192.965 264.517 192.965 264.517 192.965C264.517 192.965 264.517 192.965 264.517 192.965C264.517 192.965 264.517 192.965 264.517 192.965C264.517 192.965 264.517 192.965 264.517 192.965C264.517 192.965 264.517 192.965 264.517 192.965C264.517 192.965 264.517 192.965 264.517 192.965C264.517 192.965 264.517 192.965 264.517 192.965C264.517 192.965 264.517 192.965 264.517 192.965C264.517 192.965 264.517 192.965 264.517 192.965C264.517 192.965 264.517 192.965 264.517 192.965C264.517 192.965 264.517 192.965 264.517 192.965C264.517 192.965 264.517 192.965 264.517 192.965C264.517 192.965 264.517 192.965 264.517 192.965C264.517 192.965 264.517 192.965 264.517 192.965C264.517 192.965 264.517 192.965 264.517 192.965C264.517 192.965 264.517 192.965 264.517 192.965C264.517 192.965 264.517 192.965 264.517 192.965C264.517 192.965 264.517 192.965 264.517 192.965C264.517 192.965 264.517 192.965 264.517 192.965C264.517 192.965 264.517 192.965 264.517 192.965C264.517 192.965 264.517 192.965 264.517 192.965C264.517 192.965 264.517 192.965 264.517 192.965C264.517 192.965 264.517 192.965 264.517 192.965C264.517 192.965 264.517 192.965 264.517 192.965C264.517 192.965 264.517 192.965 264.517 192.965C264.517 192.965 264.517 192.965 264.517 192.965C264.517 192.965 264.517 192.965 264.517 192.965C264.517 192.965 264.517 192.965 264.517 192.965C264.517 192.965 264.517 192.965 264.517 192.965C264.517 192.965 264.517 192.965 264.517 192.965C264.517 192.965 264.517 192.965 264.517 192.965C264.517 192.965 264.517 192.965 264.517 192.965C264.517 192.965 264.517 192.965 264.517 192.965C264.517 192.965 264.517 192.965 264.517 192.965C264.517 192.965 264.517 192.965 264.517 192.965C264.517 192.965 264.517 192.965 264.517 192.965C264.517 192.965 264.517 192.965 264.517 192.965C264.517 192.965 264.517 192.965 264.517 192.965C264.517 192.965 264.517 192.965 264.517 192.965C264.517 192.965 264.517 192.965 264.517 192.965C264.517 192.965 264.517 192.965 264.517 192.965C264.517 192.965 264.517 192.965 264.517 192.965C264.517 192.965 264.517 192.965 264.517 192.965C264.517 192.965 264.517 192.965 264.517 192.965C264.517 192.965 264.517 192.965 264.517 192.965C264.517 192.965 264.517 192.965 264.517 192.965C264.517 192.965 264.517 192.965 264.517 192.965C264.517 192.965 264.517 192.965 264.517 192.965C264.517 192.965 264.517 192.965 264.517 192.965C264.517 192.965 264.517 192.965 264.517 192.965C264.517 192.965 264.517 192.965 264.517 192.965C264.517 192.965 264.517 192.965 264.517 192.965C264.517 192.965 264.517 192.965 264.517 192.965C264.517 192.965 264.517 192.965 264.517 192.965C264.517 192.965 264.517 192.965 264.517 192.965C264.517 192.965 264.517 192.965 264.517 192.965C264.517 192.965 264.517 192.965 264.517 192.965C264.517 192.965 264.517 192.965 264.517 192.965C264.517 192.965 264.517 192.965 264.517 192.965C264.517 192.965 264.517 192.965 264.517 192.965C264.517 192.965 264.517 192.965 264.517 192.965C264.517 192.965 264.517 192.965 264.517 192.965C264.517 192.965 264.517 192.965 264.517 192.965C264.517 192.965 264.517 192.965 264.517 192.965C264.517 192.965 264.517 192.965 264.517 192.965C264.517 192.965 264.517 192.965 264.517 192.965C264.517 192.965 264.517 192.965 264.517 192.965C264.517 192.965 264.517 192.965 264.517 192.965C264.517 192.965 264.517 192.965 264.517 192.965C264.517 192.965 264.517 192.965 264.517 192.965C264.517 192.965 264.517 192.965 264.517 192.965C264.517 192.965 264.517 192.965 264.517 192.965C264.517 192.965 264.517 192.965 264.517 192.965C264.517 192.965 264.517 192.965 264.517 192.965C264.517 192.965 264.517 192.965 264.517 192.965C264.517 192.965 264.517 192.965 264.517 192.965C264.517 192.965 264.517 192.965 264.517 192.965C264.517 192.965 264.517 192.965 264.517 192.965C264.517 192.965 264.517 192.965 264.517 192.965C264.517 192.965 264.517 192.965 264.517 192.965C264.517 192.965 264.517 192.965 264.517 192.965C264.517 192.965 264.517 192.965 264.517 192.965C264.517 192.965 264.517 192.965 264.517 192.965C264.517 192.965 264.517 192.965 264.517 192.965C264.517 192.965 264.517 192.965 264.517 192.965C264.517 192.965 264.517 192.965 264.517 192.965C264.517 192.965 264.517 192.965 264.517 192.965C264.517 192.965 264.517 192.965 264.517 192.965C264.517 192.965 264.517 192.965 264.517 192.965C264.517 192.965 264.517 192.965 264.517 192.965C264.517 192.965 264.517 192.965 264.517 192.965C264.517 192.965 264.517 192.965 264.517 192.965C264.517 192.965 264.517 192.965 264.517 192.965C264.517 192.965 264.517 192.965 264.517 192.965C264.517 192.965 264.517 192.965 264.517 192.965C264.517 192.965 264.517 192.965 264.517 192.965C264.517 192.965 264.517 192.965 264.517 192.965C264.517 192.965 264.517 192.965 264.517 192.965C264.517 192.965 264.517 192.965 264.517 192.965C264.517 192.965 264.517 192.965 264.517 192.965C264.517 192.965 264.517 192.965 264.517 192.965C264.517 192.965 264.517 192.965 264.517 192.965C264.517 192.965 264.517 192.965 264.517 192.965C264.517 192.965 264.517 192.965 264.517 192.965C264.517 192.965 264.517 192.965 264.517 192.965C264.517 192.965 264.517 192.965 264.517 192.965C264.517 192.965 264.517 192.965 264.517 192.965C264.517 192.965 264.517 192.965 264.517 192.965C264.517 192.965 264.517 192.965 264.517 192.965C264.517 192.965 264.517 192.965 264.517 192.965C264.517 192.965 264.517 192.965 264.517 192.965C264.517 192.965 264.517 192.965 264.517 192.965C264.517 192.965 264.517 192.965 264.517 192.965C264.517 192.965 264.517 192.965 264.517 192.965C264.517 192.965 264.517 192.965 264.517 192.965C264.517 192.965 264.517 192.965 264.517 192.965C264.517 192.965 264.517 192.965 264.517 192.965C264.517 192.965 264.517 192.965 264.517 192.965C264.517 192.965 264.517 192.965 264.517 192.965C264.517 192.965 264.517 192.965 264.517 192.965C264.517 192.965 264.517 192.965 264.517 192.965C264.517 192.965 264.517 192.965 264.517 192.965C264.517 192.965 264.517 192.965 264.517 192.965C264.517 192.965 264.517 192.965 264.517 192.965C264.517 192.965 264.517 192.965 264.517 192.965C264.517 192.965 264.517 192.965 264.517 192.965C264.517 192.965 264.517 192.965 264.517 192.965C264.517 192.965 264.517 192.965 264.517 192.965C264.517 192.965 264.517 192.965 264.517 192.965C264.517 192.965 264.517 192.965 264.517 192.965C264.517 192.965 264.517 192.965 264.517 192.965C264.517 192.965 264.517 192.965 264.517 192.965C264.517 192.965 264.517 192.965 264.517 192.965C264.517 192.965 264.517 192.965 264.517 192.965C264.517 192.965 264.517 192.965 264.517 192.965C264.517 192.965 264.517 192.965 264.517 192.965C264.517 192.965 264.517 192.965 264.517 192.965C264.517 192.965 264.517 192.965 264.517 192.965C264.517 192.965 264.517 192.965 264.517 192.965C264.517 192.965 264.517 192.965 264.517 192.965C264.517 192.965 264.517 192.965 264.517 192.965C264.517 192.965 264.517 192.965 264.517 192.965C264.517 192.965 264.517 192.965 264.517 192.965C264.517 192.965 264.517 192.965 264.517 192.965C264.517 192.965 264.517 192.965 264.517 192.965C264.517 192.965 264.517 192.965 264.517 192.965C264.517 192.965 264.517 192.965 264.517 192.965C264.517 192.965 264.517 192.965 264.517 192.965C264.517 192.965 264.517 192.965 264.517 192.965C264.517 192.965 264.517 192.965 264.517 192.965C264.517 192.965 264.517 192.965 264.517 192.965C264.517 192.965 264.517 192.965 264.517 192.965C264.517 192.965 264.517 192.965 264.517 192.965C264.517 192.965 264.517 192.965 264.517 192.965C264.517 192.965 264.517 192.965 264.517 192.965C264.517 192.965 264.517 192.965 264.517 192.965C264.517 192.965 264.517 192.965 264.517 192.965C264.517 192.965 264.517 192.965 264.517 192.965C264.517 192.965 264.517 192.965 264.517 192.965C264.517 192.965 264.517 192.965 264.517 192.965C264.517 192.965 264.517 192.965 264.517 192.965C264.517 192.965 264.517 192.965 264.517 192.965C264.517 192.965 264.517 192.965 264.517 192.965C264.517 192.965 264.517 192.965 264.517 192.965C264.517 192.965 264.517 192.965 264.517 192.965C264.517 192.965 264.517 192.965 264.517 192.965C264.517 192.965 264.517 192.965 264.517 192.965C264.517 192.965 264.517 192.965 264.517 192.965C264.517 192.965 264.517 192.965 264.517 192.965C264.517 192.965 264.517 192.965 264.517 192.965C264.517 192.965 264.517 192.965 264.517 192.965C264.517 192.965 264.517 192.965 264.517 192.965C264.517 192.965 264.517 192.965 264.517 192.965C264.517 192.965 264.517 192.965 264.517 192.965C264.517 192.965 264.517 192.965 264.517 192.965C264.517 192.965 264.517 192.965 264.517 192.965C264.517 192.965 264.517 192.965 264.517 192.965C264.517 192.965 264.517 192.965 264.517 192.965C264.517 192.965 264.517 192.965 264.517 192.965C264.517 192.965 264.517 192.965 264.517 192.965C264.517 192.965 264.517 192.965 264.517 192.965C264.517 192.965 264.517 192.965 264.517 192.965C264.517 192.965 264.517 192.965 264.517 192.965C264.517 192.965 264.517 192.965 264.517 192.965C264.517 192.965 264.517 192.965 264.517 192.965C264.517 192.965 264.517 192.965 264.517 192.965C264.517 192.965 264.517 192.965 264.517 192.965C264.517 192.965 264.517 192.965 264.517 192.965C264.517 192.965 264.517 192.965 264.517 192.965C264.517 192.965 264.517 192.965 264.517 192.965C264.517 192.965 264.517 192.965 264.517 192.965C264.517 192.965 264.517 192.965 264.517 192.965C264.517 192.965 264.517 192.965 264.517 192.965C264.517 192.965 264.517 192.965 264.517 192.965C264.517 192.965 264.517 192.965 264.517 192.965C264.517 192.965 264.517 192.965 264.517 192.965C264.517 192.965 264.517 192.965 264.517 192.965C264.517 192.965 264.517 192.965 264.517 192.965C264.517 192.965 264.517 192.965 264.517 192.965H264.06ZM264.288 193.194H310.732V192.736H264.288V193.194ZM310.504 192.965C310.504 199.108 306.719 205.232 299.271 210.98L299.551 211.342C307.052 205.553 310.961 199.31 310.961 192.965H310.504ZM299.271 210.98C291.826 216.727 280.898 221.958 267.101 226.369L267.24 226.805C281.064 222.386 292.047 217.134 299.551 211.342L299.271 210.98ZM267.101 226.369C253.305 230.78 236.923 234.28 218.889 236.668L218.949 237.122C237.004 234.731 253.413 231.226 267.24 226.805L267.101 226.369ZM218.889 236.668C200.854 239.056 181.524 240.286 162.002 240.286V240.743C181.543 240.743 200.893 239.513 218.949 237.122L218.889 236.668ZM162.231 240.514L162.231 215.081H161.773L161.773 240.514H162.231Z" fill="white"/>
<ellipse cx="161.465" cy="76.8536" rx="13.2696" ry="13.2696" fill="white"/>
</svg>
