<svg width="324" height="324" viewBox="0 0 324 324" fill="none" xmlns="http://www.w3.org/2000/svg">
<path d="M294.519 196.809C305.77 203.869 311.325 211.715 310.68 219.636C310.034 227.556 303.208 235.299 290.822 242.162C278.436 249.024 260.882 254.789 239.756 258.931C218.63 263.073 194.601 265.462 169.853 265.88C145.105 266.299 120.422 264.733 98.0476 261.326C75.673 257.92 56.3158 252.779 41.7351 246.373C27.1543 239.966 17.8122 232.496 14.5576 224.642C11.3031 216.787 14.2392 208.797 23.0993 201.398" stroke="white"/>
<path d="M161.723 215.08C141.438 215.08 121.609 213.783 104.742 211.353C87.8758 208.922 74.7301 205.468 66.9673 201.427C59.2045 197.386 57.1735 192.939 61.1309 188.649C65.0883 184.359 74.8565 180.418 89.2002 177.325C103.544 174.232 121.819 172.126 141.714 171.273C161.61 170.419 182.232 170.857 200.973 172.531C219.714 174.205 235.732 177.04 247.001 180.677C258.271 184.314 264.286 188.59 264.286 192.964" stroke="white"/>
<path fill-rule="evenodd" clip-rule="evenodd" d="M310.73 167.529H264.287V192.963H310.73V167.529ZM105.083 236.893C123.128 239.282 142.468 240.512 162 240.512V192.963L59.1603 192.963V167.529H13.2695V192.963C13.2695 199.207 17.1166 205.39 24.591 211.159C32.0654 216.928 43.0208 222.17 56.8316 226.585C70.6425 231.001 87.0385 234.503 105.083 236.893Z" fill="#222222"/>
<path d="M264.287 167.529V167.029H263.787V167.529H264.287ZM310.73 167.529H311.23V167.029H310.73V167.529ZM264.287 192.963H263.787V193.463H264.287V192.963ZM310.73 192.963V193.463H311.23V192.963H310.73ZM162 240.512V241.012H162.5V240.512H162ZM105.083 236.893L105.149 236.397L105.083 236.893ZM162 192.963H162.5V192.463H162V192.963ZM59.1603 192.963H58.6603V193.463H59.1603V192.963ZM59.1603 167.529H59.6603V167.029H59.1603V167.529ZM13.2695 167.529V167.029H12.7695V167.529H13.2695ZM13.2695 192.963H13.7695H13.2695ZM24.591 211.159L24.8965 210.763H24.8965L24.591 211.159ZM56.8316 226.585L56.6794 227.062L56.8316 226.585ZM264.287 168.029H310.73V167.029H264.287V168.029ZM264.787 192.963V167.529H263.787V192.963H264.787ZM310.73 192.463H264.287V193.463H310.73V192.463ZM310.23 167.529V192.963H311.23V167.529H310.23ZM162 240.012C142.489 240.012 123.17 238.784 105.149 236.397L105.018 237.388C123.086 239.781 142.448 241.012 162 241.012V240.012ZM161.5 192.963V240.512H162.5V192.963H161.5ZM59.1603 193.463L162 193.463V192.463L59.1603 192.463V193.463ZM58.6603 167.529V192.963H59.6603V167.529H58.6603ZM13.2695 168.029H59.1603V167.029H13.2695V168.029ZM13.7695 192.963V167.529H12.7695V192.963H13.7695ZM24.8965 210.763C17.4801 205.039 13.7695 198.986 13.7695 192.963H12.7695C12.7695 199.428 16.753 205.741 24.2855 211.555L24.8965 210.763ZM56.9839 226.109C43.2019 221.703 32.3071 216.483 24.8965 210.763L24.2855 211.555C31.8236 217.373 42.8396 222.637 56.6794 227.062L56.9839 226.109ZM105.149 236.397C87.1264 234.01 70.7605 230.513 56.9839 226.109L56.6794 227.062C70.5246 231.488 86.9505 234.996 105.018 237.388L105.149 236.397Z" fill="white"/>
<path fill-rule="evenodd" clip-rule="evenodd" d="M79.3698 207.066C103.828 212.291 132.584 215.079 162 215.079V189.646C161.908 189.646 161.816 189.646 161.723 189.646C105.079 189.646 59.1603 179.744 59.1603 167.53C59.1603 155.316 105.079 145.414 161.723 145.414C218.368 145.414 264.287 155.316 264.287 167.53L310.73 167.53C310.73 158.126 302.007 148.932 285.665 141.113C269.322 133.293 246.094 127.199 218.917 123.6C191.74 120.001 161.835 119.059 132.984 120.894C104.133 122.729 77.632 127.257 56.8317 133.907C36.0314 140.557 21.8662 149.03 16.1274 158.254C10.3886 167.477 13.334 177.038 24.591 185.726C35.8481 194.415 54.9112 201.841 79.3698 207.066Z" fill="#181818"/>
<path d="M162 215.079V215.579H162.5V215.079H162ZM79.3698 207.066L79.4742 206.577L79.3698 207.066ZM162 189.646H162.5V189.146L162 189.146L162 189.646ZM264.287 167.53H263.787V168.03L264.287 168.03V167.53ZM310.73 167.53V168.03H311.23V167.53H310.73ZM285.665 141.113L285.881 140.662L285.665 141.113ZM218.917 123.6L218.982 123.104L218.917 123.6ZM132.984 120.894L133.016 121.393L132.984 120.894ZM56.8317 133.907L56.6795 133.431L56.8317 133.907ZM16.1274 158.254L15.7029 157.989L16.1274 158.254ZM24.591 185.726L24.8965 185.331L24.591 185.726ZM162 214.579C132.613 214.579 103.893 211.793 79.4742 206.577L79.2653 207.555C103.764 212.788 132.555 215.579 162 215.579V214.579ZM161.5 189.646V215.079H162.5V189.646H161.5ZM162 189.146C161.908 189.146 161.816 189.146 161.723 189.146V190.146C161.816 190.146 161.908 190.146 162 190.146L162 189.146ZM161.723 189.146C133.426 189.146 107.822 186.672 89.3058 182.68C80.0435 180.682 72.5815 178.311 67.4473 175.693C64.8795 174.384 62.9191 173.026 61.6067 171.643C60.2965 170.262 59.6603 168.889 59.6603 167.53H58.6603C58.6603 169.225 59.4591 170.833 60.8813 172.331C62.3014 173.828 64.371 175.247 66.9931 176.584C72.2389 179.258 79.797 181.652 89.095 183.657C107.699 187.669 133.377 190.146 161.723 190.146V189.146ZM59.6603 167.53C59.6603 166.171 60.2965 164.798 61.6067 163.417C62.9191 162.034 64.8795 160.676 67.4473 159.367C72.5815 156.749 80.0435 154.378 89.3058 152.38C107.822 148.388 133.426 145.914 161.723 145.914V144.914C133.377 144.914 107.699 147.391 89.095 151.403C79.797 153.408 72.2389 155.802 66.9931 158.476C64.371 159.813 62.3014 161.232 60.8813 162.729C59.4591 164.227 58.6603 165.835 58.6603 167.53H59.6603ZM161.723 145.914C190.021 145.914 215.625 148.388 234.141 152.38C243.403 154.378 250.865 156.749 256 159.367C258.567 160.676 260.528 162.034 261.84 163.417C263.15 164.798 263.787 166.171 263.787 167.53H264.787C264.787 165.835 263.988 164.227 262.566 162.729C261.145 161.232 259.076 159.813 256.454 158.476C251.208 155.802 243.65 153.408 234.352 151.403C215.748 147.391 190.07 144.914 161.723 144.914V145.914ZM310.73 167.03L264.287 167.03V168.03L310.73 168.03V167.03ZM285.449 141.564C293.588 145.458 299.796 149.679 303.963 154.071C308.128 158.461 310.23 162.993 310.23 167.53H311.23C311.23 162.662 308.971 157.896 304.689 153.383C300.409 148.872 294.084 144.587 285.881 140.662L285.449 141.564ZM218.851 124.096C246 127.691 269.171 133.776 285.449 141.564L285.881 140.662C269.473 132.811 246.187 126.707 218.982 123.104L218.851 124.096ZM133.016 121.393C161.836 119.56 191.708 120.501 218.851 124.096L218.982 123.104C191.771 119.501 161.834 118.558 132.952 120.395L133.016 121.393ZM56.984 134.384C77.735 127.75 104.194 123.226 133.016 121.393L132.952 120.395C104.073 122.232 77.5291 126.765 56.6795 133.431L56.984 134.384ZM16.5519 158.518C19.3636 153.999 24.2667 149.624 31.0882 145.544C37.9049 141.467 46.6087 137.701 56.984 134.384L56.6795 133.431C46.2544 136.764 37.4754 140.559 30.5748 144.686C23.6789 148.811 18.63 153.285 15.7029 157.989L16.5519 158.518ZM24.8965 185.331C19.315 181.023 15.8486 176.539 14.4636 172.043C13.0848 167.568 13.7502 163.021 16.5519 158.518L15.7029 157.989C12.7659 162.71 12.0345 167.555 13.5079 172.338C14.9752 177.101 18.61 181.742 24.2855 186.122L24.8965 185.331ZM79.4742 206.577C55.0414 201.358 36.0652 193.951 24.8965 185.331L24.2855 186.122C35.6309 194.879 54.7811 202.325 79.2653 207.555L79.4742 206.577Z" fill="white"/>
<path fill-rule="evenodd" clip-rule="evenodd" d="M245.488 206.258V218.396H162V265.946C181.532 265.946 200.872 264.716 218.917 262.326C236.961 259.937 253.357 256.434 267.168 252.019C280.979 247.604 291.935 242.362 299.409 236.593C306.883 230.824 310.73 224.641 310.73 218.396V192.963H264.431C264.342 197.918 257.34 202.504 245.488 206.258Z" fill="#D9D9D9"/>
<path d="M245.488 206.258L245.337 205.782L244.988 205.892V206.258H245.488ZM245.488 218.396V218.896H245.988V218.396H245.488ZM162 218.396V217.896H161.5V218.396H162ZM162 265.946H161.5V266.446H162V265.946ZM218.917 262.326L218.851 261.831L218.917 262.326ZM267.168 252.019L267.016 251.543L267.168 252.019ZM299.409 236.593L299.714 236.989L299.409 236.593ZM310.73 218.396H311.23H310.73ZM310.73 192.963H311.23V192.463H310.73V192.963ZM264.431 192.963V192.463H263.94L263.931 192.954L264.431 192.963ZM244.988 206.258V218.396H245.988V206.258H244.988ZM245.488 217.896H162V218.896H245.488V217.896ZM161.5 218.396V265.946H162.5V218.396H161.5ZM162 266.446C181.552 266.446 200.914 265.215 218.982 262.822L218.851 261.831C200.829 264.217 181.511 265.446 162 265.446V266.446ZM218.982 262.822C237.049 260.429 253.475 256.922 267.321 252.495L267.016 251.543C253.239 255.947 236.873 259.444 218.851 261.831L218.982 262.822ZM267.321 252.495C281.16 248.071 292.176 242.807 299.714 236.989L299.103 236.197C291.693 241.917 280.798 247.137 267.016 251.543L267.321 252.495ZM299.714 236.989C307.247 231.175 311.23 224.862 311.23 218.396H310.23C310.23 224.419 306.52 230.473 299.103 236.197L299.714 236.989ZM311.23 218.396V192.963H310.23V218.396H311.23ZM310.73 192.463H264.431V193.463H310.73V192.463ZM263.931 192.954C263.891 195.184 262.289 197.442 259.087 199.649C255.902 201.844 251.242 203.911 245.337 205.782L245.639 206.735C251.586 204.851 256.353 202.748 259.655 200.473C262.939 198.209 264.882 195.696 264.931 192.972L263.931 192.954Z" fill="white"/>
<path fill-rule="evenodd" clip-rule="evenodd" d="M162 215.079C218.517 215.047 264.287 205.157 264.287 192.963H310.73C310.73 199.207 306.883 205.39 299.409 211.159C291.935 216.928 280.979 222.17 267.168 226.585C253.357 231.001 236.961 234.503 218.917 236.893C200.872 239.282 181.532 240.512 162 240.512V215.079Z" fill="white"/>
<path d="M264.287 192.963V192.463H263.787V192.963H264.287ZM162 215.079L162 214.579L161.5 214.579V215.079H162ZM310.73 192.963H311.23V192.463H310.73V192.963ZM299.409 211.159L299.714 211.555L299.409 211.159ZM267.168 226.585L267.016 226.109L267.168 226.585ZM218.917 236.893L218.851 236.397L218.917 236.893ZM162 240.512H161.5V241.012H162V240.512ZM263.787 192.963C263.787 194.319 263.153 195.691 261.847 197.069C260.539 198.45 258.584 199.806 256.025 201.113C250.906 203.727 243.467 206.097 234.232 208.093C215.768 212.084 190.234 214.563 162 214.579L162 215.579C190.283 215.563 215.892 213.081 234.443 209.07C243.714 207.066 251.25 204.675 256.48 202.004C259.094 200.669 261.157 199.251 262.573 197.757C263.99 196.26 264.787 194.655 264.787 192.963H263.787ZM264.287 193.463H310.73V192.463H264.287V193.463ZM310.23 192.963C310.23 198.986 306.52 205.039 299.103 210.763L299.714 211.555C307.247 205.741 311.23 199.429 311.23 192.963H310.23ZM299.103 210.763C291.693 216.483 280.798 221.703 267.016 226.109L267.321 227.062C281.16 222.637 292.176 217.373 299.714 211.555L299.103 210.763ZM267.016 226.109C253.239 230.514 236.873 234.011 218.851 236.397L218.982 237.389C237.049 234.996 253.475 231.488 267.321 227.062L267.016 226.109ZM218.851 236.397C200.829 238.784 181.511 240.012 162 240.012V241.012C181.552 241.012 200.914 239.781 218.982 237.389L218.851 236.397ZM162.5 240.512V215.079H161.5V240.512H162.5Z" fill="white"/>
<ellipse cx="129.279" cy="66.8022" rx="8.84642" ry="16.0341" transform="rotate(45 129.279 66.8022)" fill="white" stroke="white"/>
<ellipse cx="171.988" cy="109.511" rx="8.84642" ry="16.0341" transform="rotate(45 171.988 109.511)" fill="#181818" stroke="white"/>
<path d="M118.035 78.2344L160.65 120.849" stroke="white"/>
<path d="M140.711 55.5586L183.326 98.1732" stroke="white"/>
<path d="M141.102 65.332L183.716 107.947" stroke="white"/>
</svg>
