<svg width="324" height="324" viewBox="0 0 324 324" fill="none" xmlns="http://www.w3.org/2000/svg">
<path d="M161.723 240.511C141.438 240.511 121.609 239.214 104.742 236.784C87.8758 234.354 74.7301 230.9 66.9673 226.859C59.2045 222.818 57.1735 218.371 61.1309 214.081C65.0883 209.791 74.8565 205.85 89.2002 202.757C103.544 199.664 121.819 197.558 141.714 196.704C161.61 195.851 182.232 196.289 200.973 197.963C219.714 199.637 235.732 202.471 247.001 206.108C258.271 209.745 264.286 214.021 264.286 218.395" stroke="white"/>
<path fill-rule="evenodd" clip-rule="evenodd" d="M310.73 192.961H264.287V218.394H310.73V192.961ZM105.083 262.324C123.128 264.714 142.468 265.944 162 265.944V218.394H59.1603V192.961H13.2695V218.394C13.2695 224.639 17.1166 230.822 24.591 236.591C32.0654 242.36 43.0208 247.602 56.8316 252.017C70.6425 256.432 87.0385 259.935 105.083 262.324Z" fill="#222222"/>
<path d="M264.287 192.961V192.461H263.787V192.961H264.287ZM310.73 192.961H311.23V192.461H310.73V192.961ZM264.287 218.394H263.787V218.894H264.287V218.394ZM310.73 218.394V218.894H311.23V218.394H310.73ZM162 265.944V266.444H162.5V265.944H162ZM105.083 262.324L105.149 261.829L105.083 262.324ZM162 218.394H162.5V217.894H162V218.394ZM59.1603 218.394H58.6603V218.894H59.1603V218.394ZM59.1603 192.961H59.6603V192.461H59.1603V192.961ZM13.2695 192.961V192.461H12.7695V192.961H13.2695ZM13.2695 218.394H13.7695H13.2695ZM24.591 236.591L24.8965 236.195H24.8965L24.591 236.591ZM56.8316 252.017L56.6794 252.493L56.8316 252.017ZM264.287 193.461H310.73V192.461H264.287V193.461ZM264.787 218.394V192.961H263.787V218.394H264.787ZM310.73 217.894H264.287V218.894H310.73V217.894ZM310.23 192.961V218.394H311.23V192.961H310.23ZM162 265.444C142.489 265.444 123.17 264.215 105.149 261.829L105.018 262.82C123.086 265.213 142.448 266.444 162 266.444V265.444ZM161.5 218.394V265.944H162.5V218.394H161.5ZM59.1603 218.894H162V217.894H59.1603V218.894ZM58.6603 192.961V218.394H59.6603V192.961H58.6603ZM13.2695 193.461H59.1603V192.461H13.2695V193.461ZM13.7695 218.394V192.961H12.7695V218.394H13.7695ZM24.8965 236.195C17.4801 230.471 13.7695 224.417 13.7695 218.394H12.7695C12.7695 224.86 16.753 231.173 24.2855 236.987L24.8965 236.195ZM56.9839 251.541C43.2019 247.135 32.3071 241.915 24.8965 236.195L24.2855 236.987C31.8236 242.805 42.8396 248.069 56.6794 252.493L56.9839 251.541ZM105.149 261.829C87.1264 259.442 70.7605 255.945 56.9839 251.541L56.6794 252.493C70.5246 256.92 86.9505 260.428 105.018 262.82L105.149 261.829Z" fill="white"/>
<path fill-rule="evenodd" clip-rule="evenodd" d="M79.3698 232.498C103.828 237.722 132.584 240.511 162 240.511V215.078C161.908 215.078 161.816 215.078 161.723 215.078C105.079 215.078 59.1603 205.176 59.1603 192.962C59.1603 180.747 105.079 170.846 161.723 170.846C218.368 170.846 264.287 180.747 264.287 192.962L310.73 192.962C310.73 183.557 302.007 174.364 285.665 166.545C269.322 158.725 246.094 152.631 218.917 149.032C191.74 145.433 161.835 144.491 132.984 146.326C104.133 148.16 77.632 152.689 56.8317 159.339C36.0314 165.989 21.8662 174.461 16.1274 183.685C10.3886 192.909 13.334 202.469 24.591 211.158C35.8481 219.847 54.9112 227.273 79.3698 232.498Z" fill="#181818"/>
<path d="M162 240.511V241.011H162.5V240.511H162ZM79.3698 232.498L79.4742 232.009L79.3698 232.498ZM162 215.078H162.5V214.577L162 214.578L162 215.078ZM264.287 192.962H263.787V193.462L264.287 193.462V192.962ZM310.73 192.962V193.462H311.23V192.962H310.73ZM285.665 166.545L285.881 166.094L285.665 166.545ZM218.917 149.032L218.982 148.536L218.917 149.032ZM132.984 146.326L133.016 146.825L132.984 146.326ZM56.8317 159.339L56.6795 158.863L56.8317 159.339ZM16.1274 183.685L15.7029 183.421H15.7029L16.1274 183.685ZM24.591 211.158L24.8965 210.762L24.591 211.158ZM162 240.011C132.613 240.011 103.893 237.225 79.4742 232.009L79.2653 232.987C103.764 238.22 132.555 241.011 162 241.011V240.011ZM161.5 215.078V240.511H162.5V215.078H161.5ZM162 214.578C161.908 214.578 161.816 214.578 161.723 214.578V215.578C161.816 215.578 161.908 215.578 162 215.578L162 214.578ZM161.723 214.578C133.426 214.578 107.822 212.104 89.3058 208.111C80.0435 206.114 72.5815 203.742 67.4473 201.125C64.8795 199.816 62.9191 198.458 61.6067 197.075C60.2965 195.694 59.6603 194.32 59.6603 192.962H58.6603C58.6603 194.657 59.4591 196.264 60.8813 197.763C62.3014 199.259 64.371 200.679 66.9931 202.016C72.2389 204.69 79.797 207.084 89.095 209.089C107.699 213.1 133.377 215.578 161.723 215.578V214.578ZM59.6603 192.962C59.6603 191.603 60.2965 190.229 61.6067 188.849C62.9191 187.466 64.8795 186.108 67.4473 184.798C72.5815 182.181 80.0435 179.809 89.3058 177.812C107.822 173.819 133.426 171.346 161.723 171.346V170.346C133.377 170.346 107.699 172.823 89.095 176.834C79.797 178.839 72.2389 181.233 66.9931 183.908C64.371 185.244 62.3014 186.664 60.8813 188.16C59.4591 189.659 58.6603 191.267 58.6603 192.962H59.6603ZM161.723 171.346C190.021 171.346 215.625 173.819 234.141 177.812C243.403 179.809 250.865 182.181 256 184.798C258.567 186.108 260.528 187.466 261.84 188.849C263.15 190.229 263.787 191.603 263.787 192.962H264.787C264.787 191.267 263.988 189.659 262.566 188.16C261.145 186.664 259.076 185.244 256.454 183.908C251.208 181.233 243.65 178.839 234.352 176.834C215.748 172.823 190.07 170.346 161.723 170.346V171.346ZM310.73 192.462L264.287 192.462V193.462L310.73 193.462V192.462ZM285.449 166.996C293.588 170.89 299.796 175.111 303.963 179.503C308.128 183.892 310.23 188.425 310.23 192.962H311.23C311.23 188.094 308.971 183.328 304.689 178.815C300.409 174.304 294.084 170.019 285.881 166.094L285.449 166.996ZM218.851 149.527C246 153.122 269.171 159.207 285.449 166.996L285.881 166.094C269.473 158.243 246.187 152.139 218.982 148.536L218.851 149.527ZM133.016 146.825C161.836 144.992 191.708 145.933 218.851 149.527L218.982 148.536C191.771 144.933 161.834 143.99 132.952 145.827L133.016 146.825ZM56.984 159.815C77.735 153.181 104.194 148.658 133.016 146.825L132.952 145.827C104.073 147.663 77.5291 152.197 56.6795 158.863L56.984 159.815ZM16.5519 183.949C19.3636 179.43 24.2667 175.056 31.0882 170.976C37.9049 166.899 46.6087 163.132 56.984 159.815L56.6795 158.863C46.2544 162.196 37.4754 165.99 30.5748 170.118C23.6789 174.242 18.63 178.716 15.7029 183.421L16.5519 183.949ZM24.8965 210.762C19.315 206.454 15.8486 201.971 14.4636 197.475C13.0848 193 13.7502 188.452 16.5519 183.949L15.7029 183.421C12.7659 188.142 12.0345 192.987 13.5079 197.769C14.9752 202.532 18.61 207.173 24.2855 211.554L24.8965 210.762ZM79.4742 232.009C55.0414 226.789 36.0652 219.383 24.8965 210.762L24.2855 211.554C35.6309 220.311 54.7811 227.756 79.2653 232.987L79.4742 232.009Z" fill="white"/>
<path fill-rule="evenodd" clip-rule="evenodd" d="M245.488 206.257V218.394H162V265.944C181.532 265.944 200.872 264.714 218.917 262.324C236.961 259.935 253.357 256.432 267.168 252.017C280.979 247.602 291.935 242.36 299.409 236.591C306.883 230.822 310.73 224.639 310.73 218.394V192.961H264.431C264.342 197.916 257.34 202.502 245.488 206.257Z" fill="#D9D9D9"/>
<path d="M245.488 206.257L245.337 205.78L244.988 205.89V206.257H245.488ZM245.488 218.394V218.894H245.988V218.394H245.488ZM162 218.394V217.894H161.5V218.394H162ZM162 265.944H161.5V266.444H162V265.944ZM218.917 262.324L218.851 261.829L218.917 262.324ZM267.168 252.017L267.016 251.541L267.168 252.017ZM299.409 236.591L299.714 236.987L299.409 236.591ZM310.73 218.394H311.23H310.73ZM310.73 192.961H311.23V192.461H310.73V192.961ZM264.431 192.961V192.461H263.94L263.931 192.952L264.431 192.961ZM244.988 206.257V218.394H245.988V206.257H244.988ZM245.488 217.894H162V218.894H245.488V217.894ZM161.5 218.394V265.944H162.5V218.394H161.5ZM162 266.444C181.552 266.444 200.914 265.213 218.982 262.82L218.851 261.829C200.829 264.215 181.511 265.444 162 265.444V266.444ZM218.982 262.82C237.049 260.428 253.475 256.92 267.321 252.493L267.016 251.541C253.239 255.945 236.873 259.442 218.851 261.829L218.982 262.82ZM267.321 252.493C281.16 248.069 292.176 242.805 299.714 236.987L299.103 236.195C291.693 241.915 280.798 247.135 267.016 251.541L267.321 252.493ZM299.714 236.987C307.247 231.173 311.23 224.86 311.23 218.394H310.23C310.23 224.417 306.52 230.471 299.103 236.195L299.714 236.987ZM311.23 218.394V192.961H310.23V218.394H311.23ZM310.73 192.461H264.431V193.461H310.73V192.461ZM263.931 192.952C263.891 195.182 262.289 197.44 259.087 199.647C255.902 201.842 251.242 203.91 245.337 205.78L245.639 206.733C251.586 204.849 256.353 202.746 259.655 200.471C262.939 198.207 264.882 195.694 264.931 192.97L263.931 192.952Z" fill="white"/>
<path fill-rule="evenodd" clip-rule="evenodd" d="M162 215.077C218.517 215.045 264.287 205.155 264.287 192.961H310.73C310.73 199.205 306.883 205.388 299.409 211.157C291.935 216.926 280.979 222.168 267.168 226.583C253.357 230.999 236.961 234.501 218.917 236.891C200.872 239.281 181.532 240.51 162 240.51V215.077Z" fill="white"/>
<path d="M264.287 192.961V192.461H263.787V192.961H264.287ZM162 215.077L162 214.577L161.5 214.577V215.077H162ZM310.73 192.961H311.23V192.461H310.73V192.961ZM299.409 211.157L299.714 211.553L299.409 211.157ZM267.168 226.583L267.016 226.107L267.168 226.583ZM218.917 236.891L218.851 236.395L218.917 236.891ZM162 240.51H161.5V241.01H162V240.51ZM263.787 192.961C263.787 194.317 263.153 195.689 261.847 197.067C260.539 198.448 258.584 199.804 256.025 201.111C250.906 203.725 243.467 206.095 234.232 208.091C215.768 212.082 190.234 214.561 162 214.577L162 215.577C190.283 215.561 215.892 213.079 234.443 209.068C243.714 207.064 251.25 204.673 256.48 202.002C259.094 200.667 261.157 199.249 262.573 197.755C263.99 196.258 264.787 194.653 264.787 192.961H263.787ZM264.287 193.461H310.73V192.461H264.287V193.461ZM310.23 192.961C310.23 198.984 306.52 205.037 299.103 210.762L299.714 211.553C307.247 205.739 311.23 199.427 311.23 192.961H310.23ZM299.103 210.762C291.693 216.481 280.798 221.701 267.016 226.107L267.321 227.06C281.16 222.635 292.176 217.371 299.714 211.553L299.103 210.762ZM267.016 226.107C253.239 230.512 236.873 234.009 218.851 236.395L218.982 237.387C237.049 234.994 253.475 231.486 267.321 227.06L267.016 226.107ZM218.851 236.395C200.829 238.782 181.511 240.01 162 240.01V241.01C181.552 241.01 200.914 239.779 218.982 237.387L218.851 236.395ZM162.5 240.51V215.077H161.5V240.51H162.5Z" fill="white"/>
<circle cx="162" cy="88.4652" r="7.74062" fill="white"/>
<mask id="path-11-inside-1_2739_4107" fill="white">
<path d="M194.622 88.4655C194.622 106.482 180.017 121.087 162.001 121.087C143.984 121.087 129.379 106.482 129.379 88.4655C129.379 70.449 143.984 55.8438 162.001 55.8438C180.017 55.8438 194.622 70.449 194.622 88.4655ZM140.797 88.4655C140.797 100.176 150.29 109.67 162.001 109.67C173.711 109.67 183.205 100.176 183.205 88.4655C183.205 76.7547 173.711 67.2613 162.001 67.2613C150.29 67.2613 140.797 76.7547 140.797 88.4655Z"/>
</mask>
<path d="M194.622 88.4655C194.622 106.482 180.017 121.087 162.001 121.087C143.984 121.087 129.379 106.482 129.379 88.4655C129.379 70.449 143.984 55.8438 162.001 55.8438C180.017 55.8438 194.622 70.449 194.622 88.4655ZM140.797 88.4655C140.797 100.176 150.29 109.67 162.001 109.67C173.711 109.67 183.205 100.176 183.205 88.4655C183.205 76.7547 173.711 67.2613 162.001 67.2613C150.29 67.2613 140.797 76.7547 140.797 88.4655Z" stroke="white" stroke-width="2" mask="url(#path-11-inside-1_2739_4107)"/>
<mask id="path-12-inside-2_2739_4107" fill="white">
<path d="M194.622 88.4655C194.622 84.1815 193.779 79.9395 192.139 75.9817C190.5 72.0238 188.097 68.4276 185.068 65.3984C182.038 62.3692 178.442 59.9663 174.484 58.3269C170.527 56.6875 166.285 55.8437 162.001 55.8438C157.717 55.8438 153.475 56.6875 149.517 58.3269C145.559 59.9663 141.963 62.3692 138.934 65.3984C135.904 68.4276 133.501 72.0238 131.862 75.9817C130.223 79.9395 129.379 84.1815 129.379 88.4655L140.797 88.4655C140.797 85.6809 141.345 82.9236 142.411 80.351C143.476 77.7784 145.038 75.4409 147.007 73.4719C148.976 71.5029 151.314 69.941 153.886 68.8754C156.459 67.8098 159.216 67.2613 162.001 67.2613C164.785 67.2613 167.542 67.8098 170.115 68.8754C172.688 69.941 175.025 71.5029 176.994 73.4719C178.963 75.4409 180.525 77.7784 181.591 80.351C182.656 82.9236 183.205 85.6809 183.205 88.4655H194.622Z"/>
</mask>
<path d="M194.622 88.4655C194.622 84.1815 193.779 79.9395 192.139 75.9817C190.5 72.0238 188.097 68.4276 185.068 65.3984C182.038 62.3692 178.442 59.9663 174.484 58.3269C170.527 56.6875 166.285 55.8437 162.001 55.8438C157.717 55.8438 153.475 56.6875 149.517 58.3269C145.559 59.9663 141.963 62.3692 138.934 65.3984C135.904 68.4276 133.501 72.0238 131.862 75.9817C130.223 79.9395 129.379 84.1815 129.379 88.4655L140.797 88.4655C140.797 85.6809 141.345 82.9236 142.411 80.351C143.476 77.7784 145.038 75.4409 147.007 73.4719C148.976 71.5029 151.314 69.941 153.886 68.8754C156.459 67.8098 159.216 67.2613 162.001 67.2613C164.785 67.2613 167.542 67.8098 170.115 68.8754C172.688 69.941 175.025 71.5029 176.994 73.4719C178.963 75.4409 180.525 77.7784 181.591 80.351C182.656 82.9236 183.205 85.6809 183.205 88.4655H194.622Z" fill="#181818" stroke="white" stroke-width="2" mask="url(#path-12-inside-2_2739_4107)"/>
</svg>
