<svg width="324" height="324" viewBox="0 0 324 324" fill="none" xmlns="http://www.w3.org/2000/svg">
<path d="M160.791 40.4922L122.784 44.1122L107.039 78.8928M160.791 40.4922L145.045 75.2728M160.791 40.4922L183.052 71.6528L167.307 106.433M145.045 75.2728L107.039 78.8928M145.045 75.2728L167.307 106.433M107.039 78.8928L129.3 110.053L167.307 106.433" stroke="white" stroke-linejoin="round"/>
<ellipse cx="203.468" cy="84.5945" rx="8.84642" ry="8.84642" fill="white"/>
<path d="M161.723 240.511C141.438 240.511 121.609 239.214 104.742 236.784C87.8758 234.354 74.7301 230.9 66.9673 226.859C59.2045 222.818 57.1735 218.371 61.1309 214.081C65.0883 209.791 74.8565 205.85 89.2002 202.757C103.544 199.664 121.819 197.558 141.714 196.704C161.61 195.851 182.232 196.289 200.973 197.963C219.714 199.637 235.732 202.471 247.001 206.108C258.271 209.745 264.286 214.021 264.286 218.395" stroke="white"/>
<path fill-rule="evenodd" clip-rule="evenodd" d="M310.73 192.961H264.287V218.394H310.73V192.961ZM105.083 262.324C123.128 264.714 142.468 265.944 162 265.944V218.394L13.2695 218.394C13.2695 224.639 17.1166 230.822 24.591 236.591C32.0654 242.36 43.0208 247.602 56.8316 252.017C70.6425 256.432 87.0385 259.935 105.083 262.324ZM13.2695 192.961H59.1603V218.394H13.2695V192.961Z" fill="#222222"/>
<path d="M264.287 192.961V192.461H263.787V192.961H264.287ZM310.73 192.961H311.23V192.461H310.73V192.961ZM264.287 218.394H263.787V218.894H264.287V218.394ZM310.73 218.394V218.894H311.23V218.394H310.73ZM162 265.944V266.444H162.5V265.944H162ZM162 218.394H162.5V217.894H162V218.394ZM13.2695 218.394L13.2695 217.894H12.7695V218.394H13.2695ZM24.591 236.591L24.2855 236.987H24.2855L24.591 236.591ZM56.8316 252.017L56.6794 252.493L56.8316 252.017ZM59.1603 192.961H59.6603V192.461H59.1603V192.961ZM13.2695 192.961V192.461H12.7695V192.961H13.2695ZM59.1603 218.394V218.894H59.6603V218.394H59.1603ZM13.2695 218.394H12.7695V218.894H13.2695V218.394ZM264.287 193.461H310.73V192.461H264.287V193.461ZM264.787 218.394V192.961H263.787V218.394H264.787ZM310.73 217.894H264.287V218.894H310.73V217.894ZM310.23 192.961V218.394H311.23V192.961H310.23ZM162 265.444C142.489 265.444 123.17 264.215 105.149 261.829L105.018 262.82C123.086 265.213 142.448 266.444 162 266.444V265.444ZM161.5 218.394V265.944H162.5V218.394H161.5ZM13.2695 218.894L162 218.894V217.894L13.2695 217.894L13.2695 218.894ZM24.8965 236.195C17.4801 230.471 13.7695 224.417 13.7695 218.394H12.7695C12.7695 224.86 16.753 231.173 24.2855 236.987L24.8965 236.195ZM56.9839 251.541C43.2019 247.135 32.3071 241.915 24.8965 236.195L24.2855 236.987C31.8236 242.805 42.8396 248.069 56.6794 252.493L56.9839 251.541ZM105.149 261.829C87.1264 259.442 70.7605 255.945 56.9839 251.541L56.6794 252.493C70.5246 256.92 86.9505 260.428 105.018 262.82L105.149 261.829ZM59.1603 192.461H13.2695V193.461H59.1603V192.461ZM59.6603 218.394V192.961H58.6603V218.394H59.6603ZM13.2695 218.894H59.1603V217.894H13.2695V218.894ZM12.7695 192.961V218.394H13.7695V192.961H12.7695Z" fill="white"/>
<path fill-rule="evenodd" clip-rule="evenodd" d="M79.3698 232.498C103.828 237.722 132.584 240.511 162 240.511V215.078C161.908 215.078 161.816 215.078 161.723 215.078C105.079 215.078 59.1603 205.176 59.1603 192.962C59.1603 180.747 105.079 170.846 161.723 170.846C218.367 170.846 264.287 180.747 264.287 192.962L310.73 192.962C310.73 183.557 302.007 174.364 285.665 166.545C269.322 158.725 246.094 152.631 218.917 149.032C191.74 145.433 161.835 144.491 132.984 146.326C104.133 148.16 77.632 152.689 56.8317 159.339C36.0314 165.989 21.8662 174.461 16.1274 183.685C10.3886 192.909 13.334 202.469 24.591 211.158C35.8481 219.847 54.9112 227.273 79.3698 232.498Z" fill="#181818"/>
<path d="M162 240.511V241.011H162.5V240.511H162ZM79.3698 232.498L79.2653 232.987L79.3698 232.498ZM162 215.078H162.5V214.577L162 214.578L162 215.078ZM264.287 192.962H263.787V193.462H264.287V192.962ZM310.73 192.962V193.462L311.23 193.462V192.962H310.73ZM285.665 166.545L285.449 166.996L285.665 166.545ZM218.917 149.032L218.851 149.527L218.917 149.032ZM132.984 146.326L133.016 146.825L132.984 146.326ZM56.8317 159.339L56.984 159.815L56.8317 159.339ZM16.1274 183.685L16.5519 183.949L16.1274 183.685ZM24.591 211.158L24.8965 210.762L24.591 211.158ZM162 240.011C132.613 240.011 103.893 237.225 79.4742 232.009L79.2653 232.987C103.764 238.22 132.555 241.011 162 241.011V240.011ZM161.5 215.078V240.511H162.5V215.078H161.5ZM162 214.578C161.908 214.578 161.816 214.578 161.723 214.578V215.578C161.816 215.578 161.908 215.578 162 215.578L162 214.578ZM161.723 214.578C133.426 214.578 107.822 212.104 89.3057 208.111C80.0434 206.114 72.5815 203.742 67.4473 201.125C64.8794 199.816 62.919 198.457 61.6067 197.075C60.2964 195.694 59.6603 194.32 59.6603 192.962H58.6603C58.6603 194.657 59.4591 196.264 60.8813 197.763C62.3014 199.259 64.3709 200.679 66.9931 202.016C72.2388 204.69 79.7969 207.084 89.0949 209.089C107.699 213.1 133.377 215.578 161.723 215.578V214.578ZM59.6603 192.962C59.6603 191.603 60.2964 190.229 61.6067 188.849C62.919 187.466 64.8794 186.108 67.4473 184.798C72.5815 182.181 80.0434 179.809 89.3057 177.812C107.822 173.819 133.426 171.346 161.723 171.346V170.346C133.377 170.346 107.699 172.823 89.0949 176.834C79.7969 178.839 72.2388 181.233 66.9931 183.908C64.3709 185.244 62.3014 186.664 60.8813 188.16C59.4591 189.659 58.6603 191.267 58.6603 192.962H59.6603ZM161.723 171.346C190.021 171.346 215.625 173.819 234.141 177.812C243.403 179.809 250.865 182.181 256 184.798C258.567 186.108 260.528 187.466 261.84 188.849C263.15 190.229 263.787 191.603 263.787 192.962H264.787C264.787 191.267 263.988 189.659 262.566 188.16C261.145 186.664 259.076 185.244 256.454 183.908C251.208 181.233 243.65 178.839 234.352 176.834C215.748 172.823 190.07 170.346 161.723 170.346V171.346ZM310.73 192.462L264.287 192.462V193.462L310.73 193.462V192.462ZM285.449 166.996C293.588 170.89 299.796 175.111 303.963 179.503C308.128 183.892 310.23 188.425 310.23 192.962H311.23C311.23 188.094 308.971 183.328 304.689 178.815C300.409 174.304 294.084 170.019 285.881 166.094L285.449 166.996ZM218.851 149.527C246 153.122 269.171 159.207 285.449 166.996L285.881 166.094C269.473 158.243 246.187 152.139 218.982 148.536L218.851 149.527ZM133.016 146.825C161.836 144.992 191.708 145.933 218.851 149.527L218.982 148.536C191.771 144.933 161.834 143.99 132.952 145.827L133.016 146.825ZM56.984 159.815C77.735 153.181 104.194 148.658 133.016 146.825L132.952 145.827C104.073 147.663 77.5291 152.197 56.6795 158.863L56.984 159.815ZM16.5519 183.949C19.3636 179.43 24.2667 175.056 31.0882 170.976C37.9049 166.899 46.6087 163.132 56.984 159.815L56.6795 158.863C46.2544 162.196 37.4754 165.99 30.5748 170.118C23.6789 174.242 18.63 178.716 15.7029 183.421L16.5519 183.949ZM24.8965 210.762C19.315 206.454 15.8486 201.971 14.4636 197.475C13.0848 193 13.7502 188.452 16.5519 183.949L15.7029 183.421C12.7659 188.142 12.0345 192.987 13.5079 197.769C14.9752 202.532 18.61 207.173 24.2855 211.554L24.8965 210.762ZM79.4742 232.009C55.0414 226.789 36.0652 219.383 24.8965 210.762L24.2855 211.554C35.6309 220.311 54.7811 227.756 79.2653 232.987L79.4742 232.009Z" fill="white"/>
<path fill-rule="evenodd" clip-rule="evenodd" d="M245.488 180.823V192.961L162 192.961L162 240.51C181.532 240.51 200.872 239.28 218.917 236.891C236.961 234.501 253.357 230.999 267.168 226.583C280.979 222.168 291.935 216.926 299.409 211.157C306.883 205.388 310.73 199.205 310.73 192.961V167.527H264.431C264.342 172.482 257.34 177.069 245.488 180.823Z" fill="#D9D9D9"/>
<path d="M245.488 180.823L245.337 180.346L244.988 180.457V180.823H245.488ZM245.488 192.961V193.461H245.988V192.961H245.488ZM162 192.961L162 192.461H161.5L161.5 192.961H162ZM162 240.51H161.5L161.5 241.01H162V240.51ZM218.917 236.891L218.851 236.395L218.917 236.891ZM267.168 226.583L267.321 227.06L267.168 226.583ZM310.73 192.961L311.23 192.961V192.961H310.73ZM310.73 167.527H311.23V167.027H310.73V167.527ZM264.431 167.527V167.027H263.94L263.931 167.518L264.431 167.527ZM244.988 180.823V192.961H245.988V180.823H244.988ZM245.488 192.461L162 192.461L162 193.461L245.488 193.461V192.461ZM161.5 192.961L161.5 240.51H162.5L162.5 192.961H161.5ZM162 241.01C181.552 241.01 200.914 239.779 218.982 237.386L218.851 236.395C200.829 238.782 181.511 240.01 162 240.01V241.01ZM218.982 237.386C237.049 234.994 253.475 231.486 267.321 227.06L267.016 226.107C253.239 230.512 236.873 234.008 218.851 236.395L218.982 237.386ZM267.321 227.06C281.16 222.635 292.176 217.371 299.714 211.553L299.103 210.761C291.693 216.481 280.798 221.701 267.016 226.107L267.321 227.06ZM299.714 211.553C307.247 205.739 311.23 199.427 311.23 192.961L310.23 192.961C310.23 198.984 306.52 205.037 299.103 210.761L299.714 211.553ZM311.23 192.961V167.527H310.23V192.961H311.23ZM310.73 167.027H264.431V168.027H310.73V167.027ZM263.931 167.518C263.891 169.749 262.289 172.007 259.087 174.214C255.902 176.409 251.242 178.476 245.337 180.346L245.639 181.3C251.586 179.416 256.353 177.313 259.655 175.037C262.939 172.773 264.882 170.261 264.931 167.536L263.931 167.518Z" fill="white"/>
<path fill-rule="evenodd" clip-rule="evenodd" d="M162 189.643C218.517 189.611 264.287 179.722 264.287 167.527H310.73C310.73 173.772 306.883 179.955 299.409 185.724C291.935 191.493 280.979 196.735 267.168 201.15C253.357 205.565 236.961 209.068 218.917 211.457C200.872 213.847 181.532 215.077 162 215.077L162 189.643Z" fill="white"/>
<path d="M264.287 167.527V167.027H263.787V167.527H264.287ZM162 189.643L162 189.143L161.5 189.144L161.5 189.643H162ZM310.73 167.527H311.23V167.027H310.73V167.527ZM299.409 185.724L299.103 185.328L299.409 185.724ZM267.168 201.15L267.016 200.674L267.168 201.15ZM218.917 211.457L218.982 211.953L218.917 211.457ZM162 215.077H161.5L161.5 215.577H162V215.077ZM263.787 167.527C263.787 168.884 263.153 170.255 261.847 171.634C260.539 173.014 258.585 174.37 256.025 175.678C250.906 178.292 243.467 180.661 234.232 182.657C215.768 186.649 190.234 189.127 162 189.143L162 190.143C190.283 190.127 215.892 187.645 234.443 183.635C243.714 181.631 251.25 179.239 256.48 176.568C259.094 175.233 261.157 173.816 262.573 172.321C263.991 170.825 264.787 169.22 264.787 167.527H263.787ZM264.287 168.027H310.73V167.027H264.287V168.027ZM310.23 167.527C310.23 173.55 306.52 179.604 299.103 185.328L299.714 186.12C307.247 180.306 311.23 173.993 311.23 167.527H310.23ZM299.103 185.328C291.693 191.048 280.798 196.268 267.016 200.674L267.321 201.626C281.16 197.202 292.176 191.938 299.714 186.12L299.103 185.328ZM267.016 200.674C253.239 205.078 236.873 208.575 218.851 210.962L218.982 211.953C237.049 209.56 253.475 206.053 267.321 201.626L267.016 200.674ZM218.851 210.962C200.829 213.348 181.511 214.577 162 214.577V215.577C181.552 215.577 200.914 214.346 218.982 211.953L218.851 210.962ZM162.5 215.077L162.5 189.643H161.5L161.5 215.077H162.5Z" fill="white"/>
</svg>
